<mxfile host="app.diagrams.net" modified="2021-08-20T20:05:46.991Z" agent="5.0 (Macintosh; Intel Mac OS X 10_15_7) AppleWebKit/537.36 (KHTML, like Gecko) Chrome/92.0.4515.159 Safari/537.36" etag="sjZDbMSQ1Pf9Lwvk7NFY" version="14.9.8" type="github">
  <diagram id="UaBUHCqEXuaDepO4NnZu" name="Page-1">
    <mxGraphModel dx="2000" dy="664" grid="1" gridSize="10" guides="1" tooltips="1" connect="1" arrows="1" fold="1" page="1" pageScale="1" pageWidth="850" pageHeight="1100" math="0" shadow="0">
      <root>
        <mxCell id="0" />
        <mxCell id="1" parent="0" />
        <mxCell id="MDW9-s44pcAaPrtHk8VI-13" value="" style="rounded=0;whiteSpace=wrap;html=1;dashed=1;strokeWidth=2;fillColor=#D5E8D4;" vertex="1" parent="1">
          <mxGeometry x="13" y="195" width="825" height="370" as="geometry" />
        </mxCell>
        <mxCell id="MDW9-s44pcAaPrtHk8VI-23" value="" style="rounded=0;whiteSpace=wrap;html=1;fillColor=#cce5ff;strokeColor=#36393d;" vertex="1" parent="1">
          <mxGeometry x="665" y="235" width="160" height="290" as="geometry" />
        </mxCell>
        <mxCell id="MDW9-s44pcAaPrtHk8VI-22" value="" style="rounded=0;whiteSpace=wrap;html=1;fillColor=#cce5ff;strokeColor=#36393d;" vertex="1" parent="1">
          <mxGeometry x="350" y="230" width="280" height="290" as="geometry" />
        </mxCell>
        <mxCell id="MDW9-s44pcAaPrtHk8VI-21" value="" style="rounded=0;whiteSpace=wrap;html=1;fillColor=#cce5ff;strokeColor=#36393d;" vertex="1" parent="1">
          <mxGeometry x="30" y="230" width="260" height="290" as="geometry" />
        </mxCell>
        <mxCell id="2IxBjbh98j0hbVe7MZd_-4" value="" style="edgeStyle=orthogonalEdgeStyle;rounded=0;orthogonalLoop=1;jettySize=auto;html=1;startArrow=classic;startFill=1;" parent="1" source="2IxBjbh98j0hbVe7MZd_-1" target="2IxBjbh98j0hbVe7MZd_-2" edge="1">
          <mxGeometry relative="1" as="geometry" />
        </mxCell>
        <mxCell id="2IxBjbh98j0hbVe7MZd_-1" value="Frontend&lt;br&gt;Angular" style="rounded=1;whiteSpace=wrap;html=1;" parent="1" vertex="1">
          <mxGeometry x="135" y="40" width="120" height="60" as="geometry" />
        </mxCell>
        <mxCell id="2IxBjbh98j0hbVe7MZd_-5" value="" style="edgeStyle=orthogonalEdgeStyle;rounded=0;orthogonalLoop=1;jettySize=auto;html=1;startArrow=classic;startFill=1;" parent="1" source="2IxBjbh98j0hbVe7MZd_-2" target="2IxBjbh98j0hbVe7MZd_-3" edge="1">
          <mxGeometry relative="1" as="geometry" />
        </mxCell>
        <mxCell id="2IxBjbh98j0hbVe7MZd_-2" value="Backend&lt;br&gt;Java&lt;br&gt;Spring" style="rounded=1;whiteSpace=wrap;html=1;" parent="1" vertex="1">
          <mxGeometry x="335" y="40" width="120" height="60" as="geometry" />
        </mxCell>
        <mxCell id="2IxBjbh98j0hbVe7MZd_-3" value="Database&lt;br&gt;MySQL" style="rounded=1;whiteSpace=wrap;html=1;" parent="1" vertex="1">
          <mxGeometry x="535" y="40" width="120" height="60" as="geometry" />
        </mxCell>
        <mxCell id="MDW9-s44pcAaPrtHk8VI-1" value="&lt;br&gt;&lt;br&gt;&lt;br&gt;&lt;br&gt;Backend&lt;br&gt;Java&lt;br&gt;Spring" style="rounded=1;whiteSpace=wrap;html=1;" vertex="1" parent="1">
          <mxGeometry x="370" y="250" width="220" height="260" as="geometry" />
        </mxCell>
        <mxCell id="MDW9-s44pcAaPrtHk8VI-2" value="Database&lt;br&gt;MySQL" style="rounded=1;whiteSpace=wrap;html=1;" vertex="1" parent="1">
          <mxGeometry x="700" y="290" width="90" height="120" as="geometry" />
        </mxCell>
        <mxCell id="MDW9-s44pcAaPrtHk8VI-3" value="Frontend&lt;br&gt;Angular" style="rounded=1;whiteSpace=wrap;html=1;" vertex="1" parent="1">
          <mxGeometry x="180" y="270" width="90" height="230" as="geometry" />
        </mxCell>
        <mxCell id="MDW9-s44pcAaPrtHk8VI-4" value="StationRepository" style="rounded=1;whiteSpace=wrap;html=1;" vertex="1" parent="1">
          <mxGeometry x="395" y="300" width="135" height="80" as="geometry" />
        </mxCell>
        <mxCell id="MDW9-s44pcAaPrtHk8VI-5" value="LinkQueryController" style="rounded=1;whiteSpace=wrap;html=1;" vertex="1" parent="1">
          <mxGeometry x="395" y="440" width="140" height="50" as="geometry" />
        </mxCell>
        <mxCell id="MDW9-s44pcAaPrtHk8VI-8" value="" style="endArrow=classic;html=1;exitX=0;exitY=0.75;exitDx=0;exitDy=0;entryX=1;entryY=0.909;entryDx=0;entryDy=0;entryPerimeter=0;startArrow=classic;startFill=1;" edge="1" parent="1" source="MDW9-s44pcAaPrtHk8VI-5" target="MDW9-s44pcAaPrtHk8VI-3">
          <mxGeometry width="50" height="50" relative="1" as="geometry">
            <mxPoint x="320.00000000000006" y="580.0000000000001" as="sourcePoint" />
            <mxPoint x="489.04" y="580.1" as="targetPoint" />
          </mxGeometry>
        </mxCell>
        <mxCell id="MDW9-s44pcAaPrtHk8VI-10" value="" style="endArrow=classic;html=1;exitX=0;exitY=0.416;exitDx=0;exitDy=0;startArrow=classic;startFill=1;exitPerimeter=0;" edge="1" parent="1" source="MDW9-s44pcAaPrtHk8VI-2" target="MDW9-s44pcAaPrtHk8VI-4">
          <mxGeometry width="50" height="50" relative="1" as="geometry">
            <mxPoint x="660" y="339.22" as="sourcePoint" />
            <mxPoint x="600" y="341" as="targetPoint" />
          </mxGeometry>
        </mxCell>
        <mxCell id="MDW9-s44pcAaPrtHk8VI-11" value="" style="endArrow=classic;html=1;exitX=0;exitY=0.75;exitDx=0;exitDy=0;startArrow=classic;startFill=1;" edge="1" parent="1">
          <mxGeometry width="50" height="50" relative="1" as="geometry">
            <mxPoint x="395" y="339.22" as="sourcePoint" />
            <mxPoint x="270" y="341" as="targetPoint" />
          </mxGeometry>
        </mxCell>
        <mxCell id="MDW9-s44pcAaPrtHk8VI-14" value="port:4200" style="text;html=1;align=center;verticalAlign=middle;resizable=0;points=[];autosize=1;strokeColor=none;" vertex="1" parent="1">
          <mxGeometry x="240" y="320" width="70" height="20" as="geometry" />
        </mxCell>
        <mxCell id="MDW9-s44pcAaPrtHk8VI-15" value="port:8080" style="text;html=1;align=center;verticalAlign=middle;resizable=0;points=[];autosize=1;strokeColor=none;" vertex="1" parent="1">
          <mxGeometry x="325" y="320" width="70" height="20" as="geometry" />
        </mxCell>
        <mxCell id="MDW9-s44pcAaPrtHk8VI-16" value="port:3306" style="text;html=1;align=center;verticalAlign=middle;resizable=0;points=[];autosize=1;strokeColor=none;" vertex="1" parent="1">
          <mxGeometry x="660" y="320" width="70" height="20" as="geometry" />
        </mxCell>
        <mxCell id="MDW9-s44pcAaPrtHk8VI-18" value="Load Balancer&lt;br&gt;Ngnix" style="rounded=1;whiteSpace=wrap;html=1;" vertex="1" parent="1">
          <mxGeometry x="40" y="350" width="90" height="60" as="geometry" />
        </mxCell>
        <mxCell id="MDW9-s44pcAaPrtHk8VI-19" value="" style="endArrow=classic;html=1;startArrow=classic;startFill=1;" edge="1" parent="1">
          <mxGeometry width="50" height="50" relative="1" as="geometry">
            <mxPoint x="180" y="379" as="sourcePoint" />
            <mxPoint x="130" y="380.89" as="targetPoint" />
          </mxGeometry>
        </mxCell>
        <mxCell id="MDW9-s44pcAaPrtHk8VI-20" value="" style="endArrow=classic;html=1;startArrow=classic;startFill=1;" edge="1" parent="1">
          <mxGeometry width="50" height="50" relative="1" as="geometry">
            <mxPoint x="40" y="379.06" as="sourcePoint" />
            <mxPoint x="-70" y="381" as="targetPoint" />
          </mxGeometry>
        </mxCell>
        <mxCell id="MDW9-s44pcAaPrtHk8VI-25" value="Container-FE" style="text;html=1;strokeColor=none;fillColor=none;align=center;verticalAlign=middle;whiteSpace=wrap;rounded=0;dashed=1;" vertex="1" parent="1">
          <mxGeometry x="40" y="235" width="80" height="20" as="geometry" />
        </mxCell>
        <mxCell id="MDW9-s44pcAaPrtHk8VI-27" value="Container-BE" style="text;html=1;strokeColor=none;fillColor=none;align=center;verticalAlign=middle;whiteSpace=wrap;rounded=0;dashed=1;" vertex="1" parent="1">
          <mxGeometry x="355" y="230" width="80" height="20" as="geometry" />
        </mxCell>
        <mxCell id="MDW9-s44pcAaPrtHk8VI-28" value="Container-DB" style="text;html=1;strokeColor=none;fillColor=none;align=center;verticalAlign=middle;whiteSpace=wrap;rounded=0;dashed=1;" vertex="1" parent="1">
          <mxGeometry x="665" y="235" width="80" height="20" as="geometry" />
        </mxCell>
        <mxCell id="MDW9-s44pcAaPrtHk8VI-29" value="Subnet: powernet" style="text;html=1;strokeColor=none;fillColor=none;align=center;verticalAlign=middle;whiteSpace=wrap;rounded=0;dashed=1;" vertex="1" parent="1">
          <mxGeometry x="20" y="200" width="120" height="30" as="geometry" />
        </mxCell>
        <mxCell id="MDW9-s44pcAaPrtHk8VI-30" value="" style="shape=image;verticalLabelPosition=bottom;labelBackgroundColor=#ffffff;verticalAlign=top;aspect=fixed;imageAspect=0;image=data:image/png,iVBORw0KGgoAAAANSUhEUgAAAlsAAAHpCAYAAAC1L/mSAAABQ2lDQ1BJQ0MgUHJvZmlsZQAAKJFjYGASSCwoyGFhYGDIzSspCnJ3UoiIjFJgf8rAwSAChEIMuonJxQWOAQE+QCUMMBoVfLvGwAiiL+uCzJolMEcqUTMqX9JP1pnd6FgfpnoUwJWSWpwMpP8AcUpyQVEJAwNjApCtXF5SAGK3ANkiRUBHAdkzQOx0CHsNiJ0EYR8AqwkJcgayrwDZAskZiSlA9hMgWycJSTwdiQ21F+yGAA8fBSMT4zBTAo4lFZSkVpSAaOf8gsqizPSMEgVHYAilKnjmJevpKBgZGBkyMIDCG6L68w1wODKKcSDEMl0YGMweMzAwpSLEkrcyMOwUYWAQ3IoQ07wL9BIXA8N+oYLEokS4Axi/sRSnGRtB2NzbGRhYp/3//zmcgYFdk4Hh7/X//39v////7zIGBuZbDAwHvgEAvURbwAJ/S8sAAABWZVhJZk1NACoAAAAIAAGHaQAEAAAAAQAAABoAAAAAAAOShgAHAAAAEgAAAESgAgAEAAAAAQAAAlugAwAEAAAAAQAAAekAAAAAQVNDSUkAAABTY3JlZW5zaG90dLEaqgAAAdZpVFh0WE1MOmNvbS5hZG9iZS54bXAAAAAAADx4OnhtcG1ldGEgeG1sbnM6eD0iYWRvYmU6bnM6bWV0YS8iIHg6eG1wdGs9IlhNUCBDb3JlIDUuNC4wIj4KICAgPHJkZjpSREYgeG1sbnM6cmRmPSJodHRwOi8vd3d3LnczLm9yZy8xOTk5LzAyLzIyLXJkZi1zeW50YXgtbnMjIj4KICAgICAgPHJkZjpEZXNjcmlwdGlvbiByZGY6YWJvdXQ9IiIKICAgICAgICAgICAgeG1sbnM6ZXhpZj0iaHR0cDovL25zLmFkb2JlLmNvbS9leGlmLzEuMC8iPgogICAgICAgICA8ZXhpZjpQaXhlbFhEaW1lbnNpb24+NjAzPC9leGlmOlBpeGVsWERpbWVuc2lvbj4KICAgICAgICAgPGV4aWY6VXNlckNvbW1lbnQ+U2NyZWVuc2hvdDwvZXhpZjpVc2VyQ29tbWVudD4KICAgICAgICAgPGV4aWY6UGl4ZWxZRGltZW5zaW9uPjQ4OTwvZXhpZjpQaXhlbFlEaW1lbnNpb24+CiAgICAgIDwvcmRmOkRlc2NyaXB0aW9uPgogICA8L3JkZjpSREY+CjwveDp4bXBtZXRhPgrIBMRlAABAAElEQVR4AeydBXwU1xPHf3FIcHd3t6LFpbiW4hQrpcUd/kCxUopbcdfiUtzd3SmuwTWEePKfeZc97i53l4uVhMzwudvdt2/fvv3ukf3dzLx3dkFkEBMCQkAICAEhIASEgBCIEgL2UdKqNCoEhIAQEAJCQAgIASGgCIjYkg+CEBACQkAICAEhIASikICIrSiEK00LASEgBISAEBACQkDElnwGhIAQEAJCQAgIASEQhQREbEUhXGlaCAgBISAEhIAQEAIituQzIASEgBAQAkJACAiBKCQgYisK4UrTQkAICAEhIASEgBAQsSWfASEgBISAEBACQkAIRCEBEVtRCFeaFgJCQAgIASEgBISAiC35DAgBISAEhIAQEAJCIAoJiNiKQrjStBAQAkJACAgBISAERGzJZ0AICAEhIASEgBAQAlFIIFaJraPHz2DitDl48PBxFCKVpoWAEBACQkAICAEh8JlAtBBbHzw+4t79R/jk5fW5ZxFYs9TexcvXsOLv9fj35t0ItC6HCgEhIASEgBAQAkLAdgLRQmzt3nMQjZv/hFNnLtrecys1LbWXKGECpEmTEq6ucawcLbuEgBAQAkJACAgBIRB5BBwjr6no31LzJvXBLzEhIASEgBAQAkJACPxXBP4TseXn5wcnJ6dIuSZuy9HREXZ2dpHSnrlGwtvfAP8AODg6mGvS5jI+9+079y3WT5s2NRLEj2dxf1TvuHLtX6RInpReycye6uate0iWNBGSJElsdn9UFd4iZq5x4yBtmlRRdYpY1+6XupexDrRcsBAQAl89Absgssi+ysDAQGzdsQ/LV67H7du6/KgEFMIrXDAf2rZugnx5cqpTPn/+EqPGToW7+zPcf/AImTKmpzBfKpQqWQzNGtfTd+v8hStYsmItOOfqw/sPqjx9+jSoXbMamv9QH3HpIcsWWnsHDh3H+k3b0Lv7z8iYIZ06Rnu7c+8Bli5fhytXr6u+cH/z582FyhXLom6tqlo1tdTOU+O7SihWpCAWLVmJYyfP4NEjd6RMmRwF8udF3x4/h0twPCEW9b5vY3Q+w41Rwwfgu6oVDIuidP3S1Rs4duw0Ov3USp3n20r18HOH1mjVvJHZ8/L+Nq2bokObZmb3R1Vh2449kTNHNgzo0znST/H67Tv8vWojGjeope5vpJ8gihoMa7/N3esvcS+jCIc0KwSEgBD4YgSixLM1bdYiLF22Wl1U/ny5kSpVSpw9dwkHDx1Tr7kzxqNwoXwIon8fPT/B189X1Q0IDFDbPt66bS5k0TZ0xFi1v3Spb5AuXRp8/OiJI8dOYebsRbh67QYm/DlUebpCa4+FzLHjp9GiaUMjsbVrzyH877c/1DlY8LGIe/7iJfX5Io7SeU6dPo8hA7vDxcVF1fHy9lbteHl5Y9LUuXjz5g0qVyqHb4oWxvV/b2H3ngPqemf/NQaZM6VXx4T1rX+frqhUsUyIw+K7uYUoi8qCa9duYt7C5XqxFdq5+N4mTfrferVC61NE9795804J6nJlS8YosRXWfpve66/xXkb0syDHCwEhEH0J8LO4bNmyqoOHDx8mh0eSaNNZh2FkkdkbDxpZ2KvfUNXk+lUL8GPLxqhS8VvlCcmWLQt27z1IguQ2vicvQbx4bqhX+zs4Ozkr8fTboN7o3rk9ChXMq47/+MkLbdp3Q5w4Lli6cDpakkgqQ4KrYvnS+KFRHWzbuRf8gKhQrgyFrhKH2t7lKzdw4uRZ1KpRBekoHMfGAuynX3qr9bGjf0P/3p2pvVKoTXUa1KuJs+cv4/iJM3CJEwdFSCCyvSPv2up1m/Hs2QtwWG/5oul0HdVQtkwJNKxXA06OTjh05DjV81DXrg6y8Y35rVy9ETXJa8aeNQ6NGb4cHBzQrfcQ/HvrLkoWL6JvdfJf87Bpyy51PuY2duJMjJ88A+s2bMMrEgtFyKtob2+Pw0dP0r4Z5A2Mi/6DR+E9Xcvk6fOQN3dOvUjikFxPuoevXr2l69wETxLER0ikMvtVa/9B+rRpsGnrLoweNw179h9GehLAWviOy7jt7Fkzo3OP/8GfQquLl63B2AkzsIvuferUKen4YPZPn2PoyPGYMXshieZbeEsepOWrNqByhW/112W4cuDwCUyhvnL/j5Mn8aOnF/Ll1XlJN23eqULVu/cewvDfx2PH7oNwc3NF9myZVRM+Pj7EYzZG/DEZC5euwqUr11Ewf271mWGvarc+v6FQgXxInCihqs/3dxmNXM2dKzv6Dfpd9e3ipauq/4ZeUebXsUs/ODg4kmctqzqWw8mdug7Aew8PFKAvG/xFY8CQPzBh8ixsoy8PfA+5XQ6FT5k+X3lFS5Uoquunry/a/dwLaVKnUp/Rnv2GwZO+XKxev0V5d/n/i6GxY3oFed3GU9vTZi7E6bMXUaBAHvDnyFy/LTHce+AoZs9bYnSvp86Yr7+XfE6+98PofnH54aOnkDF9OqROlUJ1J7R7bdhnWRcCQkAIRDYBTWhdu3YNL1++xJYtW9CsWTP1NyyyzxWe9iJ9NOLde49UPwoXyo8MFOoztEokkr4pVliFFt+8eWu4y+z6GXpwsDX9oQE9vDOpde2NQ4c1vqusNm8Ghyq1fWFZzp6/TFXvRyKL+2do/OCdNvF3VbRw8d/qAWa4n9cnjBmK5MmM1XPrFt8rgXjy9DnT6jZvv3j1Rs0HxnOCaS8WhmzJkyXFMgqr+tCDmc3b20dtp6MQLD98f+02ADtIiFauWI48bmWxYNEKjBwzRdV9TcLr5Klz6DdwBBImiI9CdJ+uUR4WixTN9uw7pMpKkJjLlTO7KuaQqWtcV7W+cs1GEmnv0bhhbSVWe/b9TTtUeQG1frI4GfnHRHqAe6JRg5q4R6HavgOGqz5yn9v+1BN37t4jYVmFpv54qMTbcRLD5uzhwyfo03+YutZuv7YncZca4yfNAOcVacYeRW6nVYvG6py/DR8LDkGzDRkxDmvXb0brlt+jc8cfcYM8kB0794Wvrx/YQ8kMPD990prCUwpx37h5S4mxb0sXV+WlShRTYW59JVpJSOFmFlcbKDyt2bmLV3Du/CVkzZSR+ncXP5MY45GwA/t1R8ECedV1sjBmu0tM7tO0J5oFBgSqvrx7914VXaUvE0rUklDlkLWpnTpzgbyrs0lkl0XbVk3w8NEjDCRhx19kTPttjWGG9GlD3Gv26Gr3ksXnOBK5zIC9rpyD+dOvfVTInftk7V6b9lm2hYAQEAKRSUATWk+fPsXJEyexfft28Dp7uXhfdLBIDyNmz55JXdf5C5fVgyZH9ixG1/nnyIH44OFJD4PQk7xzk6fgz1GDyMOT26gNbSNJ4kRqlb/Fh9f2kWeGPWd1a1Uz2wQLkoYNamP9hi0qZ0x7gHHlYkULIi15akyNk+QzZ86I69dvmu6yeXsKTb7KL0Njl+iuLSuU12vT5h1K2LA37Sh53thqVq+Mo+SBYuHA3PgBzBbH2QXTyXvUq1tHtc1vfXv9iibf11XbZUhM7D94FJ07tVHbe/cdRvlypckrk4tCo4VU6Ncwh46F9KxpY1TdrJkzqRDss+cvkCqlzsuhdgS/FSlcAFMnjFRbWUh8DBwySoVoj1IeGP8nWLNirgq1ck7Y981+wptgkWHYBq+/fPUaHEYe98dgFc6tQ57Hnbv348DhY8iRXee94mk9/iYvI/P/kQQX54+t3bgViRMnxL79R9CDrp+9o2zZsmZB+0491XWz0LBkfP9ZaC6hsHjVquWRle6rqVWn/Xyv+AsEDww4QCw55694sUIYTCKPP1+TxgxT/apVvRKY1eJlq1C/jrGXyrRdbZvv+6Y1C+gbWsgpS9gjxe03JC9svHiuJMgKYMu23Yjn6hqi3+xhs8SwY7sWZu+11odZ85ai7Lcl0ZtyEdmqkoivUvMH5VX7X7+uqszSvTb3uVAHyJsQEAJCIIIEDIXWju07ULyE7ssxr1evUV0JrugQUox0seVKIaSqVSqovKXmP/4KznMpX7a0evBwyIE9AfyyxTjZnF9sL16+olF6D/DY/alKqGfPhOb5sqUtc3Xe0oOdPSwsmviBZcnyUMhnPe189OSpUZUMGSznY8WLYG5Vh3YtUbqkLrSkndSJRmGycb4bP4A54Z/F1h4SR5wczvlhe0hUsJ04dR4XLlxV60+e6jxiPBBBMxYQmnHCPXuB2INmR/84rNaxfSttd4hlIQpJapYqle7+vH373qLY0uqmTq0TY1yXPTp8DYY5baVLFcOW7Xu16kbLoiQiWMgsXr4W7KHh+8/3znB8R8kS3+hHg/L95Pv66LE7bt99oNoqSiJRszy5s6nV+3TN1sSWVt/ashoJDxZbBw6fRIO632H3viOoQjl8LPpu3bqjvLmGo1QL5M+jvIvsEbPFqlUuZ1Zo8bGNSGTxF4HqdZtRjl9ZlPu2BLqS58/wfNo5bGGo1TVcvnv3QQ1M4eM1Y755cufUe7a4nMWWZob3WsSWRkWWQkAIRCYBS0KLz8GiKzoJrkgXW3yRI4f1I89BJjUa8RDl2fCLLUuWTKhftzqakkeF84dsMc4xmUuhvn9v3jaqziKMk+8vU+5NeI1zrtiSJU1qtQkOAbHxKERDi+MSOdNZGLaprWfOmE7l+2jbhktmV6tGZcrR2ok+PTrhMOWH/dqprari8dFDLf39/eEZoHuYJ6JwaB3K9XElb4dmhtNHcI4a2/6Dx+m+2Kl1fmhbMsNjKfHIUjVV7uYa1+x+D8oDc3Mz9tQkTKjLlzJ3AHtlOBzH3qvi3xTFDzRadepfc42rmgysdXZ2pl8l8IbHB53nM2WKz9NVBAbXtTSFiBbGMz6B+S01ApXCg/sOHFFeNv4DUIMELBt76gxFCJcFUKjQkn34oLt/hvsTJIxvuGm0njNHFsyfNQlbKWx89NhJbNu+B7lz58DS+VON6vGGTQxDHAVofUqe1Dhc7k+fL0fKP9PM0r3W9stSCAgBIRBZBKwJLe0c0UlwRYnYciQx0P7HpurFydYcUuTcGU6On0iJvAcOHqMw1J+hCq4t9ODghFy2ihXKUIJ2cZo+Iq+a44lDKicop6RL94Ea1zAvtbmgOOHdmnlSwjlbUtO5o0IRGtbajOi+6lUr0lQVazBz7mLl4dGmg0hHuUxsPCWGFsLlnyfi5PRkycyPEmRvJI+m3HdQ5xWrXq2SVU9fRPvOx7OXk4UBe00SJdKJWR5ZaslWrt2kQnOrl81RfWOv1tjxfxlVv2WQu8ceL86bqlihLFKTQGM7f+kaJd/rRnjyAAM2HijBCetsPMpUs9t3PueCaWXWltWrVVT94alL2GOnDfLISCFK7oeh8XWyaGTvk4ODPeUCeup337n3UL9uy8oKGkyRgQYo/K9vF6reBZu37VEDBHgah7g0qMPQbGFoWF9bTxWcBH+Jpl7RPmfslbtEOXn16lTXqslSCAgBIfCfELBFaGkdiS6Cyzb3ktZrG5bv6Zs5/84hPwzZOLGdRw6OplytbZuWqbm0+OFz8XLoHqk585eqNhbOnUK5OkNUjguPBNNyV16/Dj3JXjVg4Y09HRwOuXdfF2ayUE2FvHhfeiu5PZaODW/5KRocwEnUpi+eD4yNPRo8TcWKlRtUHk7S4Py18pRXw8aj9m7QqE+eImPQ0NFqFCKLKkvGD1HO9eJX9WoV9NVcyDvExqP3/Gn+tMiyCmV13rQRoyfi/MWrNLXCKr0H1Nw5UtCgAF8aUfjixSsKDT7F8D8mqWqc3M7zurGxl3MpjSDknKgF1B5/BuvWrorCNDqPBdBiyrti7yTPPzVn3jJ17ytSbpoWRpy/cAV40lbui2G+nUvwhLxXaZ+l3+/kHCY2Dumx11HzmFUjrhyW5SlMuK8c+uUBCg3q1FT1s2bOpL6MrNuwFSyQJk6ZpcptfXv58jWNzpyuvnhw+0+fPVeH8ohP036HxtDSvXZ2dlI5fNt3H8DlqzoGc2g6ELZ6NuadqcryJgSEgBCIIIGwCC3tVJrg+pJJ85Hu2dq6Y6/yXvXu+YvRxKR80Tzr+PcN66hRZJxvxV4qS8bfnN3dn6ucrfzBw/tN656hebAiajko14m/oR8/cZYmUzXOkeK2ecTfhn+2q9Nwwn6UW7C3bBOdk1+m1rPbz/ok7RqUEM9zjdWipWYc0vpz1GDyCI5Dy7bs7YDyokz4fbhWxeyyDOVLsfB0prnEShX/zKFo4fyqvB1NGrph9UKzx3KhJi5M1w0PcAgOHXPdXDmzYVD/HpgwZaYSWdxvzu+7ctX8oILGJNgPU5isYdP2qkn2xHFuII/KLEQhPLYCtJxNnj5tYMFP7Vvim+ARfKNHDEBfmsKhVoNWqi5f68Sxw/XCve2PzcAjTtt06K7C3dwXHtnIxhPocmhuwqSZyltkLrGdR67y6E0WUrVrVlHH8dv39Wvi2vVbaq64ocGl3O/mTXU/G1WPwuo8hQmPOGTjwRgszuzsPn8P4jw6S8aJ8TwoQvPwcmJ+964d1RQWHP427HdoDM3da+2+9qP/z736D6cRpN31XeHz8NQW5szwXpvbL2VCQAgIgfAQGD16NGiKTpWPxSLKVtMEV9u2bcFtjBs3ztZDI6cehVsi1a5dvxlUtNR3QXUatQ4iL1eItgcPH6f200Si+n1r129RZZTcrS/jlZr1W6ryly/fGJXzxs7dB9U+PhfN42S031J7NG+SOubEqXP6+iT6VFmjph2Cnj1/qS/nFX8//6ChIyeo/aPH/aXfRw9hVTZh6mx9mekKzbOk6piW/1fb5OUIunz1RhCFEIMCAgJCPS1fa8XqjYP+mrUoRF1ui5LaQ5RHpODFy9dBzN6P+vbpk5dqaszEGUFdew222uzN2/eMPleUd6fuk3YQt3frzr0gygnTivRLHx/foOs3bqn9fL2mxsc8dn9mWqzfZgbcviXr+7+RQW1+6mF2N1/vhYvXgt68fRdiP3nmgh4+cg9izuE1/n/HL27L1Ez7bY2htXvNn6MHDx6rz5V2z0zPJdtCQAgIASEQkkCke7Z4skbO+dmxax8N5e9Io+WKg0cx8TdkztniZHnOVylZvLBeLSYKDoFt3b4brpRn4ujsqDwSPI8W/xROu0490KZVM/KMJVFhoN00DxR7xjjh/u7d+zQK7DjlAKVE1cq6UI6l9vQnNFjhvjWsXwvraYqAZjR6kueO4kk631IuEU8LwaEp7u8vwT9XY3BotF5lz432s0ihdZTz6Xj6CP4pJPbEmBq3xa/INPYYcsI7/xwMhy1v3b6H1Ws2oVvnDlZPw2FpQ2OPmKFxvmA2+lyYMw6HsUfNksWjZH5+WTItt8x0/236DHJeHE8vwVNumDOei810PjatHv/fSJ8utbYZriX/v7Nkpv22xtDaveaBGRkyWJ4mw9L5pVwICAEhENsJRLrYYqCD+ndDEvox4hWUP8PzQfFLM56rpx/N8RTf4MeUi1GoinNqtJGLPPEph386dWytcmT4IfzHmMlaEypRevDAnviuSnnUa9xOhQFv0mhFTWxZas+REpLNGc8TVIBmE584dQ44b8fQatP8W/2pv1qeGO/j2cLV0t58e7o6lvepg6PR28y5S2geq1cY/ls//VQbUd09noC1T89faVbyjUpQc/iredMGFn9zMar7E5H295LI4tnVWThamv0+Iu3LsUJACAgBIRCzCUTJD1FrSPhnY+7R6KrXr9/QT8EkUT/TYvotW6vLSc63bt+nofLvkD1LZqORczxi7Q55DwIpUMujuzj3SzOeAfzRE3cko5GChvN3WWtPO9Z0SY4/PKGfkOF5nBLTCDmevoJnyhaLWgL8ObHmUYras0vrQkAICAEhIASilkCUiq2o7bq0LgSEgBAQAkJACAiB6E/g85Cn6N9X6aEQEAJCQAgIASEgBGIcARFbMe6WSYeFgBAQAkJACAiBmERAxFZMulvSVyEgBISAEBACQiDGERCxFeNumXRYCAgBISAEhIAQiEkERGzFpLslfRUCQkAICAEhIARiHAERWzHulkmHhYAQEAJCQAgIgZhEQMRWTLpb0lchIASEgBAQAkIgxhEQsRXjbpl0WAgIASEgBISAEIhJBERsxaS7JX0VAkJACAgBISAEYhwBEVsx7pZJh4WAEBACQkAICIGYREDEVky6W9JXISAEhIAQEAJCIMYRELEV426ZdFgICAEhIASEgBCISQREbMWkuyV9FQJCQAgIASEgBGIcARFbMe6WSYeFgBAQAkJACAiBmERAxFZMulvSVyEgBISAEBACQiDGERCxFeNumXRYCAgBISAEhIAQiEkERGzFpLslfRUCQkAICAEhIARiHAERWzHulkmHhYAQEAJCQAgIgZhEQMRWTLpb0lchIASEgBAQAkIgxhEQsRXjbpl0WAgIASEgBISAEIhJBERsxaS7JX0VAkJACAgBISAEYhwBR1t6vGf/EVuqSR0hIASEgBAQAkJACMRKAlUqfmvxuu2CyCzulR1CQAgIASEgBISAEBACESIgYcQI4ZODhYAQEAJCQAgIASFgnYBNYUStCXGCaSRkKQSEgBAQAkJACAgBwM7OLlQMNoktFlmBAYEIDAoEr4voCpWrVBACQkAICAEhIAS+YgIssvhlb2cPewd7q6IrVLEVGBgIf39//SsgIEAvtnifmBAQAkJACAgBISAEYgsBe3tdBhYLLQcHBzg6Oupf2j5TFlbFFnuwWGj5+PjA/b0P9j1xxokXrnjySVK9TEHKthAQAkJACAgBIRB7CKR1DUSJ5D6onO4T0iR0URfu5ORk1sNldTRigH8AfHx98OjNJ0y5Eh95UziiZBo7pEsgYiv2fJzkSoWAEBACQkAICAFTAo8/BOKEexCuPPdDj/wfkT6JK1ycXeDg6GBaFRbFlubV8vLywrJrQJCzG77PFbKBEC1KgRAQAkJACAgBISAEYgmB9TcCEODjidZ5gbhx46qQomnSvFUXFQsuztE6+dJZebRiCTe5TCEgBISAEBACQkAI2ESgOEX8Tr9yVnrJ0gDCUMUWH/jkk4OEDm1CLpWEgBAQAkJACAiB2ESAU6tYJ7FeCpfYik2w5FqFgBAQAkJACAgBIRAVBKyORuQTWpve4emnIPQ9HIg9j+gXf7yjontfYZtxgCrp7TCurD1Su4Y+EdpXSEAuSQgIASEgBITAV0fAml6yGkYMjUS3QyS0bonQCo2T0X4SpcyM2YkJASEgBISAEBACXz+BCImtww/lN6zD+xERduElJ8cJASEgBISAEIhZBCIktuAbsy42WvVW2EWr2yGdEQJCQAgIASEQVQQiJraiqlfSrhAQAkJACAgBISAEvhICIra+khsplyEEhIAQEAJCQAhETwIitqLnfZFeCQEhIASEgBAQAl8JARFbX8mNlMsQAkJACAgBISAEoicBEVvR875Ir4SAEBACQkAICIGvhICIra/kRsplCAEhIASEgBAQAtGTQKgzyEe3bidMAXTIaociKexw5z2w4GYg7rsb97JGLjs4W5CRZ98GwZEmbi+YyPLs7Q88g3DhgXGb0XHLz88Pvw8dgYJFC6Nho4bRsYtm++Tu7o47t26jZOlScHJyMlvnSxcumr8Iz549xYBBA8PVFX9/f5w9cxbJkiVD1mxZw9WGHCQEhIAQEAJfB4GYI7ZIPK2uZ4/G2Y1V1JDi9jjiHoSyywOA4DlWt9V1sHh3Tj0Lgj01UYzEmiV7/DEI6WdQe9Hc9u3eizOnTiN+/Phh7mlQUCCuX/+XxEBypEiRLMzHmx7w6OEjeHt5I3vO7Ka7QmzPnDoD586cwZhJ45Evf74Q+790weNHj7Hm75VIlDiJ2a4EBgZg8YLF2Ll9B3x9fDBv0UIkSWZc99bNOxgxeCgKFi6IP8aNMdsOF/r6+qF/rz548fylqpMwUQLMmDtLX3/kb8Nw4tgJFCpSGD379EKyFMn1+8Kz8urFS+zevQf37t5F0iRJkStPLhQvWQJx48YNT3NRfszaVWtQqnRppE2fNsrOde7sOXh8+IDyFStE2jkO7j+ABAkSoHDRIjhy6DBc3dxQhNYNjf/PHD92HD80/cGwOMzrFy9cxOOHj1Grbi3402dz/aq1Rm2kTJWS7nMepExJ31TFhIAQCBOBVUsX4Dl98e7Wd1CYjjOtbKxcTPdGo+1VBkLr7FNfTDrxAbxk+zaNHdY3DHkpjz8EqDpcT3ttu+ONnbe99dtewZrKj349R6uznfZHd2OxtH7dOtXNWvXqhbm7d+/cQ99uPfHH8BFhPtbcAd1/7YIenbvik9cnc7uNylissLk4uxiVR5eNTes3qq7Ua1TfbJdOnzqDtStXw+M9PaArVUKiJAlD1AsK0l2jk5NziH2GBXak+d+/f4d3b9+o14N79w13I0eu3IifMAEunDuPeXPnGe0L68bF8xfRsV0HbFq/gb5w2OPq5SsYO+pP9O/ZFx4eH21qbvyY8Vi32vhhHtqB/Fn9qU07XKHzhWb/0hcArutDIpZt4dz5uH8/at3MF86fx/49+0LrGkz7Zu2AXdt34tSJU6rKnp27ceLosRDVHz54hJXLlocoD2vB2dOnsWblSnVYoH8gFs9fSPd4E44cPIy9e/aoe9yuRWvs3rknrE1LfSEQqwmsXrYQ86ZPxidPzwhziBmeLXIa/BDs0Vp44SPabfICHOghFvAeJzokQPG0LqiansWW8e8NDjzoiWXndH+09aQc6ZegyQbv1j1cDrVLiLLpnfHUIwDF5lBcks2BQlvO0TO8pesgyDN0Do/pj3WuPLmRO09Ordhoyd9yHe0dwA87Xz9/EjefH/yeH3UfHk9P2x6y3Ia/f4DZsB/v8/HWcfb29IZrXFejfphuDP19BDw/eiBxEmNvkGm9sGyzgLOna7VkGgvezw9yFxfzQu8DCahtm7eoZmrUqmm2uQfBD/9GTb5Hu586mK2TJ28eLFyxBIkTJza7XyvkMOqCpYuV2Gna4HutWL9s0rwJSn9bGp3a/YSHERAdPr70BWXceGTOkgXDRo0kb2g8dY5zFOocMmAQtm/dZpOH5eXz50iSJJG+f7asBAUFwf2xOz59Cl2Ie/t4q7raD7pu2LYZjo4hv0jZct7IrmPaN2vtD/9jpLXdUb6vddvW+K5mdXUeb/q/OWHsOEym+58rd06kz5A+ys8vJxAC4SUwYlAf7Nu1HQtWbkSWrKFHSgzPc/fOLbRrWh+VqtXAb6PGG+7Srz91f4zBvTqj0ne10KJtR325uZU1yxebKw5XWYwQW52yfL62drv8gbjaA8wNJee/o6fnMxJIdCnxUn6uSGu/FouHMpl1DxVtxy8HSZCxznAKDpvYBcce2cWgb1erHX2X69fovFoNvm9o1En2UKxdtQonjp9QYoy9Iq6uumvlhzrbndt3cJ5CJ2xc/8C+/Wo9rqsrSlBISTMvLy8soXAZe0Du3L6titNlTI9WP7bGt+XKqm0OS129elU7BEePHEH8BPHh4OCAwt8UQzxqU7MrV65g3sw5FDrTeSR/aNYEFSpV1HarJYum7Vt2YNuWrbh/967y6uTMmRM/tm9L//F0H4TpU/7CVWqLQ1/FS5bEBvLwsZepcrVq6Nqzq5Eg3LhuA46TV+HKpctwieOC1GnSqnYXr1hqNiS3jUQHW626dfSCRBUYvPlTrhxbwkTmxeKk8ZNw699/VR3u44Spk9S64Rs/ANk7duXyZRKJdshfoKDhbqN1N1c3te3nF/7feDq47yBe0r0a/sfvRtdVpFhRtGzzo9H5HpCInztjJm7TPU+dOjUa/dCY7ve3WDBvvuL44MEDODvHQcsfWxodx2GxVX+vwrHDhykEmwj1GjRAvYb18b++A1W9WX9NJ+EfhIKFCmHBnHk4c/oUAgMCKZScHx1+6ajE2JQJE1Xd3uR1HTl6FEb//gfa0L3ncPPz5y8wY8o0XL50Cc4klr+r8R1atG5NfXECfyYSJ0msPtv82UiRPAV9FrqbDWs/e/YMs6bNwP1795A5a1YQfr3x52/NyrXYs2snfZv1RtHixfBzp4547/EBpn1zixfP7HUkSpQI82fPQ6rUqdT16xs3s8JfUubPmUtep91wsHdE7Xp10LRFE6yhUODlC5cw8s/f9UcN/d8QFChcGI0aG/+f11ewsBKHPvftO3bAsUNHsJW+SHTq/IuFmlIsBL48ga69B2Lvzm2oVb4Elm/YjiLffH4mWevdudMn0aJBDaRIlQrchjm7e+smBnT/GW/fvMajB/fMVTEq479XkWUxQmwVD9ZQvspxpRNP1XPaYUp5/sabNPgF5JxPoRtd9EbxKZXaHqVSG6OadikA1zwN/roa744RW/fu3lNhpeSUv1OSvB6GtnzxEmze+I8SKWUrlscpEl0sRFhoaNa3Ry+9J4r3jftjjLYLM+bNRsZMGdX26ZOn8M8GXUgtY+ZM8Pb2UgJu9IhRWLZ6hfJMzZ41W/0R1xqY9dcMbRW/dO2sHh5aAXvibv17U9ukBPTn+nVtZfL4Kdi7a5e2qfrOeWn8Gjt5AvLmy4tjR46pkBtXunHtur4uH1egcAFUqVpFlR2hh8vcmbPVerkK5fAvCSAWcGxv374LIbZ4wMHGdevVfkshRN7pQ94XNidH8/99Th4/rvqtKpl54zwtFhNaX7gKh/gsmaOT7jz88A+vPaA/LJyDpt1bFhV+5O1ka8gPb/6yQcbiu2fnLsQ5P/oO6IdbNJBh9IjfMWrsn6hcpQrOnDyNdOQZKU+fLVObTkKIBcjocWNx5cpVzJkxS+WatSQvS/8efUgc1USOHNnxN4XOTp04gQ6dflZ5TdMmT8aq5SuVoK5dvx7mkyBv+1N7Eu0JcJ3aef/uA3lV/TG4/wDYk4jv1a+vOvVE8tZQx9G2Qzu4P3miPJLNWrZAxcqVsGDuXMybPQdjJnIdYxv52wj4B/ihxY8/KlG89Z/N+KZEcVVp1fJVJHRWoWXbH5EpUyYlmoYOGYrf//wDpn1bvmSp2ev4uXMnPCRBGqQlkRqfPsTWlUtX0KV7V1wicbVs0WIkT5mcOOXA4nkLlHjkARZ379xV/wca0xeU8FgqegDx34uH9++H53A5Rgj8ZwQSUy7pxl2HUb9aWSWebBFchkKLj+U2TO3a5QsYRB6tjx4eatfb16/o71nI8L7hcfx3MrLM/NMislqPpHY8ffmCHdUoQq3JfIkDkSORSdiItZcBm+uv/HH3rc4LoR137R1XMjlO2xlDlhvIW8NWn0YgcpjQ0C5dvKQ2c1NC7I/t2qBn397Ys2M3Hj16qK/WlB5I506fweXguixE2BLSN3L+Nq5ZkeLfoFuvHshfqACSJ0+uiptQqIu/jT+4/1CJrSrVqlIf7HHowCG1v3ipkojj4gwnlzjqQau1xcvvan6HvOShWEB5OCwCTe0aCSdNaFUkwcSeE3dKVp86aYryyvDDnJPHZ86bhWaNflCHlyxTGu06tqcQ2UT1YP732g292GKPHBs/ZBo2bkxejMy4dP4CduzYiTRpTFQ41Tt44KASSXwNadOaT8hmMXKaBIdqN5iJ2jB4m0l9ZJEyfNBvBqWfVzdv2qwXWo2bNUX6jBmwfPFiPH8aUnzyUQnIO8nGeV1XSXyw4AyrsVeLk+81Y3E3uP//tE213LpnB/bt2avub+8BfRCPPJQ80pWF7n7yfvbs01MNxkhFCdfmQlHMhgUr54M1aFQPefPmonMmpLrpVPvMn0PHRYsVQ+kyZZAlWxa8evUKqVKlwU0SwuyByUqeJjb2ZLHHSrNLlATOocjJ06fpvVXsod2+dasSW1yP71vLNq3UIe/fvSeP0RztcP3yxYsXir0m3Kt+VwUXL17Q72ehVatubdRtUE+Vtf+5A4YQp4+UQG/aN0vXoW/MxpVOnX9Fztw5lbeYvzwcP3wEg4YNUeL4MOVdsdjiJX+O8+bLY2OrIavlyJ0Lr1++CrlDSoRANCMQFsFli9Bij1b/rh3JYfD5Cysfx6//ymKE2Dr1lBRUYejc/SxYXwPjL/jg8qM3+CGvG9oVMg4VavBGHffC8gvGYgvOVDcGO7bevnlDLtZdylNVhcIopla2fHlwkjWLGX6xR4u9FDVr19JX5dFPuXLlwsCL/ZAmXRr0H2z80NUqBpLngx9O7Pm6eeNfrVgtPT0/qSWHHYuX+EYvtrp27xZiZJ52oJ2dvXpIs8fCnHHYRLOOFLphkcHfyOs2aqC8HXxdHynvRxMfXLdeg/pKGPFIL+UF+fBeawJlyn+rPHMsNDh5ny1HLnqoESOXuLrcPX1lWtmwRufVamBhGo19e/fhLxJ+LDY5PJs7X27Dw/XrLCgyZc6k3zZduUJhMLbsOXNQiKwNryqb+OdYbTXEkr01++n8/Xr0RvnKFdFvYP8QdawVsEA6Sg9szkljfnlIzMxfulAdsnPbTqym0ZdsT0jcsrX4vqlaam9uBuFgrcx02Y3CdhPHj1es+XNXoWJF/NKts2k12FMOFgto9uxxPQ4JWhK32sFP3SlVgCxr9ixaEdKQIGbPrPbtkz8rmrnFc9V7b7UyXp49fVZt5qTPgWYFKIT7kj7n7EHje7t+9Tr10vbzkj2hphae6zBtg68/R67PeSk5SRDdo/Am5x9WrV6N/l/tV5+Rg/v3oQqFyfn/UHjtBXmS+UuYmBCICQRsEVy2CC2+1oiGA3k0cUQtRoitpTeDsKiGTmw9auKAshsDcP+JM3Z+sMfynJ9zgkxh2DnSN2OXuKbFMXp7yz+fk7cN86G0i6rTsJ6ajmD7tm3qQcQPD55mgV8LVywLMc2DH4W0LNnUyVPoW/ZRJSxq1qmtPF9b/vnHaohMe/BZatNauZYUzQ+gOAZTEcSP91mceVNiv+F1J02ucxdz+MrU8uXLh84UnuGcLvaKsLFo5FcymqrBcKg/e3r44Z+JEsgLkCfPnD194q5/gCdNmgyc4xYe+/BeJwhTkADSLLRh+WnT6bxDXP/GtWvaYTYvswR7jC5euICy5cupwRKpKB+L7b5BaImnK2D+f69brfLueD8PCHAMZVQlJ+D7+fth6szpSrTwCDkWpixuq9Woxs0o48/HxDHjSFylp0T9EeQxTQYOPd+6eUurYnYZL77uj93r12/VMVzp/v27amoNbWAEi5/QjIUd2xv60pIiRQq1zuImHv0xdXXT/a1oR/lNnGvG5kXTmfCccBkyZzQKWYf3OlSjBm/8/5Pz97SpN7gv+QvoPn8VSVTzFCTbt25XXs/K5IULr92+eVuF8OvTFxcxIRBTCFgTXLYKLb7WrDlyYsy0ORjcu4ua5oXLOBesccu2vGrV7Ozs6Mup5Zxaqwcb7Az9r5NB5S+26uOEccc+qNOni2eHey0d4dHLGUG/uCKpFS21tEYcBPVzNHp59o4R+tIsah5FxwmubHWCwxymFRfPmY+HDx+CE8AX/b0MPfr20Vc5TsnrmjkFT7vAXp93796pP/inKEdr6aIlynvEDxMWWmw/NG9KoqULJe42VYnHWhva0vDb9g0SMjzy7/q1fyn/ZCk42dpW47ASGz+AdtADhkc5cmhqB4WK2NibFJZ5pvbQfFLcDieFr9m4DkPp4Z4ytU7gHNp/QLWpva1fs1atNvzhe60oxLJ5q+YYPGyoEiMszDi0FR5Lmz69OuwM8X7x4pXKR+IEaWvG4S22Fj+2wl8zZ1iranbftxQqZiE5669ZKoT8iUQr5whxMr9hSLdY8aKKP+f9cUiQ56DiHL+rwd44Bwd7vHn1RvXZ8EQOFDocPeIP5RFKmDA+ypT9Vt0vzk/jP1Zsr1+9ViNaP33yQuZsmZXg5c/JAboXmtDmgRVsr0zCXXlIOLP9vWSZ+ry+pP3sqStBE+OGxQoWyK+qL1u0TF3H8SPHlUeUC3lkKM+LtZc+N5zsz96smZTUP270WEpet9eLT+5bYGAQJfRbvo6w9GnZkqXq/xxPzcDe2W9KFleHc35d1mzZlGjNnS+vGqxga7vPnj5TU1Vcu3qNctm2ol+v3kqYagNbbG1H6gmBL01AE1yc+M4J8CyywiK0tP7nyV8I46cv0OdzJaYvzMVKlA71VbR4KfoyFL4v1tq5eRkzlAe5zgfsD4KH7zuMrJhIRQHjkdOKxwnsv+eNJHHtUSiVs35SUy63FCm0VE5/O6O97aO5gDhsUppGhhmGTAw7ziMDOdzW5edfUL1WbRr556PfnYFygzRLmuxzAqFpyIi/WRcqUkj9cWaPz+oVK3Gd/mjfIiHF4oxtwpgxyJDxL33uDosYzjniZGr2jLBgYguk0Rw8DJ0fXgN699cntvO+pQsWqRcnbs9bMl+N/OLQGifRz54+A+vXrNGfj+u3bK3LxxnUbyBvKhvUdwC69e6JOdNnqm1+AG/Ku1F5Jm6Tt4RHUXbp+AvltzVSOUs8+o0tQ6bMaslv3Dc1OSyJuXLly+rLTVdYVJb6thQlYFcmEbcNL2l0nKnNon5s3rDJqLhWlepqu93PHdVIsrr16qpQMDNq27ylys3hfCzNhgwYbDQKjUOnXJe5NmvZLFyhJM7tGzLiN3pwT8WQgYO1U6mH+bA/RmLY/4aoMp78kvu5gJLLeY4rNs6fq1ZLdw1Fi5dQ++xp9G+vfr3Ufn5zpMECfJ9n0yhGTvJmY+FSjULdzK0McWVPlyN5m1u0aqm8WetWrlGC7Lsa1dXIzL+XrkD97xuo3CSe6mL+skWqHX5jD1jf//VXIW2eTJaNJ4ytVOWzt8c+WNTxPhZ4zMvUWKz3osR/DtlyfiDX4X7akZhi60o5iiOGDFOfGd5mgT942G/q+jh3ivOmtL5Zuw4+1s7or5D5vzx8/gtnL2BjcAi7Ok03kitXDj5cWeXvqqrP8Hc1amhFVpcaAg4La6FhThXgEGQrSvrn+yQmBGIaAU1waUnz3H8WX5aS4S1dX5bsOTBl3lI19UP6jJ+fAZbqR2a5HcUyzcoMLuYh+h6Uud90b0Isr0PqxsRS/aUbzWRSHHWbfl7k13+DnOmdkMbVHvtv0gPdicJH5AGBD40wSBQsJt4/obIA8/1wJFEW73NuB7wpF8ObvGbOpFxdk5k/JopKn3UJ2x++zh1/VaGucVMmgudxMmc9OnczGvHHdVgIVa5alYbJtzQ6hGfn1h6ovIM9H9+SR6JxiyYq8Z5npp5N4kGbaJPbKVSosJo5nR8S4yZPVMm7fCzP1zR29Bh9iFGr24ZGinGOEAsafkiZM36gzV+0AG7x49GQ3DdqBBjnJ2nG+1vT9AQ169RSRT27dNfnkLFQ45Fcvw8brlVXo9p4WomF8xaoh7h+B61wWzzdQbeePVRCNu+bS8KCH3at2rVBU/LihWYrli6nhPalaE/TFTQ0ye9iT9EeSsA3Z4bt86zif1HCP4tnNhYOd+/eU9v5yPtiOIqOPUmtmjZX+XVziVNEjXOTnj19irQ0jYdhSNawXU/yKLq7P6UJWxPrw3bafs774vtvbq4yntT2Hk2YmyljRnU/tWN4yce5xndTny2u9/rla6RLn1aJMd7nRAnxHE5jj+aH9x+NEvq1dng6Ep4tPSHNXxaRXz5gz95TmgKCR1Yazj/H52GvrvuTp+qLSga6DkOBYto3a9eh9dmWJf+EVTy3eEb5iHwce2d5ugsO65rjbUvbUkcIfC0EeMoGFlxsYRVaUc2gxWY/rKz8Xg0icnZ2Vl/4DM8Zs8SW1vNAEnmsEXny0RhsYRVbLGY43GLt9/o4vOJM+TV2NHnQGxrayn/ArYXeOOT3hsI7PBLR9KGjoeUkeZ7mwJZJSFkYuNBoRBZOETEOYT2nhF6eINX0p3BsbZc9Qh8pP4r7/SLYC6U93A3b+GfDP0pAjqNpAlzjhZ4IuYmmw5gzfRaatGiuvDmGbYVlnR/cPP0FCwyem8mSPaFpDTr+2F55oabO+stSNSn/ighwDtzOrTuwcf06lKtQ0WggxVd0mXIpQuCrIRCa2AqbayW6YKHJ/2Kj2TICjcMtmiWgofuhGYeXtERhS3VD2294XHiFkWEbvM75M+nSpzMtDtM2e200z425qQq0xuo2qEtD/etqm6EuUyTX5X2tWr4CXiToOv7aUXlnQj3QpAKH13jSUGvGuVPrVq9RVVKQZ1EsdhAICPDH0cOHaURidQqJ66ahiB1XLlcpBL5OAjEjQf7rZC9XFUMJlChdXE2/wN3nSV/ZmxhVdvTwEZW3xnk3nCMkFjsIsEeXQ8nNWjQL9eevYgcRuUohELMJxE4XUcy+Z9L7L0yApxpgL2OXHl3h7xdAs6CH7kEMb5dH/jlKzXhsSwg3vOeQ44SAEBACQiBqCYjYilq+0vpXTED94LaVqUci49I5nCpCKzJIShtCQAgIgS9HQMKIX469nFkICAEhIASEgBCIBQREbMWCmyyXKASEgBAQAkJACHw5AiK2vhx7ObMQEAJCQAgIASEQCwhETGzR/KBi4SQg7MIJTg4TAkJACAgBIRCzCERIbJXNYP4nKGIWgi/TW2H3ZbjLWYWAEBACQkAI/NcEIiS2ppazR5XsJLji/NfdjsHnI1bMjNmJCQEhIASEgBAQAl8/gVCnfrAP/oFWcyhSu9ph2XcO5nZJmRAQAkJACAgBISAEYg0Ba3pJ3Cux5mMgFyoEhIAQEAJCQAh8CQJWxZadnZ365eq0rgF4/CHwS/RPzikEhIAQEAJCQAgIgWhLgPUR6yRNM5nraKhiy8HBASVT+OOEe5C546VMCAgBISAEhIAQEAKxlsAp0kffJPMF6yUWXObMotjiA+zt7OHo6IhKab1x5UUA1t8QD5c5iFImBISAEBACQkAIxC4C7NFiXXSJ9FHV9L5KL7FuMie47ILILOHhXX5+fvDx8YH7ex/sfuSM069c8OSTRY1mqSkpFwJCQAgIASEgBITAV0MgrWsgebR8lNBKk9AFLi4u4N+zDbPYYiKBgYHw9/fXvwICAqDpM94nJgSEgBAQAkJACAiB2EJAG3XIoopDhxwB1F7aPlMWVj1bWmUWV4EBgQgMClRCSxNb2n5ZCgEhIASEgBAQAkIgNhFgscUvDh3aO5gPH2o8bBJbWmURWRoJWQoBISAEhIAQEAJCAGbDhqZcQp3U1PAAc3FIw/2yLgSEgBAQAkJACAgBIWBMQDLdjXnIlhAQAkJACAgBISAEIpWAiK1IxSmNCQEhIASEgBAQAkLAmICILWMesiUEhIAQEAJCQAgIgUglIGIrUnFKY0JACAgBISAEhIAQMCYgYsuYh2wJASEgBISAEBACQiBSCYjYilSc0pgQEAJCQAgIASEgBIwJiNgy5iFbQkAICAEhIASEgBCIVAIitiIVpzQmBISAEBACQkAICAFjAmGa1FRmkDeGJ1tCQAgIASEgBIRA7CZgy4TvNokt+W3E2P1BkqsXAkJACAgBISAEjAmE5bcRQxVbgYGB8Pf3178CAgLUj1HzKXmfmBAQAkJACAgBISAEYgsBe3tdBhaLLQcHBzg6Oupf2j5TFlbFFnu0WGj5+PjA7+1DuN7+B3EeHwc8npu2I9tCQAgIASEgBISAEIg9BOKnhHe6UviUrS6cEmdQ1+3k5GT2h6ntSFAFWSIT4B8AH18feL+6hyTHRgJpCwCZKgGJslg6RMqFgBAQAkJACAgBIfD1E3h3F7i/D3hyEW9K/4Y4yTLDxdkFDo4OIa7dotjSvFpeXl5wPjMdcZxIkxXqEKIBKRACQkAICAEhIASEQKwlcGEBvH0D4PtNV8SNG1eFFE2T5q1O/cCCi3O0VOiQPVpiQkAICAEhIASEgBAQAp8JZKqAOE9OKr1kKVgYqthSB3KOloQOP4OVNSEgBISAEBACQkAIMAHWR6STWC+FS2wJRSEgBISAEBACQkAICIGIEbA6GpGbtja9Q9CHp/i0eTj8bl1CoKdXxHoSS462d4sLp+wF4FpnKOwSpI4lVy2XKQSEgBAQAkLg6yZgTS9ZDSOGhsVz42/wuXBShFZooAz2syhlZsxOTAgIASEgBISAEPj6CURIbLFHSyx8BIRd+LjJUUJACAgBISAEYhqBCImtIG/fmHa90aa/wi7a3ArpiBAQAkJACAiBKCUQIbEVpT2TxoWAEBACQkAICAEh8BUQELH1FdxEuQQhIASEgBAQAkIg+hIQsRV97430TAgIASEgBISAEPgKCIjY+gpuolyCEBACQkAICAEhEH0JiNiKvvdGeiYEhIAQEAJCQAh8BQREbH0FN1EuQQgIASEgBISAEIi+BEKdQT66dN0hVUo4Zchj1B2/h9cQ8Ix+tzHY7OO7wTl3cdCPE8H7zEG15F32CePDOWcxXfn5I4hTpKx2iNmlz5UTCPoU/WfE9/PzQ+8RU1G8UB60bFTD7LVEx8JH7s9x/fYDVCxVGE5OTtGxi5i2YA3cn7/C6IG/hKt/AQH+OHrmMlImS4KcWTOGqw05SAgIASEgBL4OAjFGbLnW7gOnYs1DUvd6B999U/Bx8xw4FygH11bzVB2fy5mhzWUVp1gNxGk8SZX7DSsC13bLQrZjUBI0+wf4nD9qUBI9V7fsPYZjpy4iYTy3MHcwKCgQl2/cRcrkSZQgCHMDJgfcf/QEXjTvWu7smU32hNwcM30pTpy5hLnjB6Fw/pwhK3zhkgePn2Lxqs1IkjiR2Z4EBgbgr4XrsHHHQfj6+mDjwvFIlsS47rWbD9Drt0koVig3Zo0ZaLYdLvT19UOHvqPw7PkbVSdxwnhYNfsPff1ewybh0PHz+KZwXgzr1QEpUyTV7wvLyvMXr7Ft/3HU/64cEidKoD/03TsPbNh5EDUrlgpz2w+fPMPuw6fRvmkdfXtf28riNVvpS0FRZEiX6mu7NLkeISAEbCCwYPkqPCWnzqDe3WyobblKjAkj+gcGXwSJBO87J+Hz4CyC/LyBuIngXGsonDJngX+Q+Qv1046l3QGenvB5eF69/Nyv6w/wf/1QX+794pG+PLqusFhavm676t4PdauGuZs37z5Cux4j0Ic8Y5FhLbsMRSt6ffL6FGpzAQEBqk6cOM6h1v0SFVZs2KVO26zhd2ZPf+T0JSxZvQUfPnigesXSSJIofoh62m9kOTtbv0Y7O+Ddew+8eftOve7cf2zUVr5c2ZEgQXycPn8Vk+evNtoXlg320k1fsBovX78zOuzF67eqnPeH1R6Q2Jq5cE2oh/FntUG7vjh/+d9Q60ZFhSv/3lXn9/HxCbX5VZt2o9/v0/T1ps1bhdsPnui3ZUUICIHYQ2DhilWYPGMuPD+F/lwLjUqM8WxpFxLo7YGnvzdQm/7xXJF92m217pinEvzehv5HMejDRzwZWksd45AkITJO0AmuV8u64dOFU6o8npMdHKO5DD1+9gruP3RH/tzZ6JVV9dv0LYA8MA72DhRVDYSvnz9cDB78Hh91H56PHz1NDzO7zW34+weYDfvxPu/gXxP45OUL17iuZtvQCqeM6AU+bxITb5C2PzxL9jbZ07VaMo0F7+eHrouLi9mq70n4rNuyV+1rVKOC2Tp3Hrir8laNa6J7h6Zm6xTMmx1blk5E0sQJze7XCjmM+s+iCfjg4YlK34cMWbZrWhuVyhTG9x0G4u796P8lQLsuw2UQhfUfPXmOj15fJjTv5e2tzh8YaOHbmEFn39L9f/L0pb7k2Ob5cIzufwz0vZUVIRDzCfQdMhzbd+3FhhWLkD1rljBd0K079MWqeRvUqFYZ40YONXvsY/en6NxnEGpSnZ/btDBbRytcvCL0L5Na3dCWMU5s8QUldCF3AJl9ws8Pdc6RscXYk5BIO55ElWauRMI5uFwri87LpWt1Xq0WJrla/NBeRF6XQyfOKzHGXpF4bnHUpfBDne3fOw9wksQa23uPT9i+75had3OLi3IlCqt1fvPy8sb0Retw/sq/+Pf2fVWeKUMadGrdCFXKfqO2OTx1/upNtc5veymslIBy5xwcHVG6WD7Ec/18j7idiXP+hq+P7mee2jSpjRqVbJCUOAAAQABJREFUSuuP5RUWTeu2HcT6rftw6+5D5dXJlysLurRpjBxZM6i6o6ctxgVqyzVuHJQtWQTLyMPHXqY61crhf91+NBKEy9ftwIHj58ircgPsSUufJpVqd+vSSWbDZmu3H1DnaFyniroOtWHyxrlybIktCKkRE+fj6r93VB3u48LJIX903Nvbh+7TVpwjb489CfuiBfKo+ube4rm5qWLf4POaqxMZZR/p21vX/41HhTJFsYfuI4uOCqWKoM8vzZSA5j5Povt3/NxlCpsmRo4s6Y1Ou4Tuw+6DJ9VxBfNkQ1u6vwXyZEen/mNVvXEzlpLwD8K33xSga9+OzbsO0jdGH5QpXgC9fmqG+PS5MTUOT89e9g9OnruC5PTlqHTxgujevolpNbV95PRFrNy4mz4bN9R97vVzc6SisOvISfPV/jbkyf1rdF94en4y2+auQ6ewevNe9VnqNmQCpo7sjU4DxqBr28Yq3H364jVMnLVCfX7Sp02Jds3qoU7Vb1XbrboNU5+/LbsP4bH7S/BndmSfjkhI+aJiQkAI2E5gYM9u2LZzL0pUqont65ajRLGiNh188sxZ1GjUAqlTpgC3Yc5u3r6Ln3v2x+s3b+n5+NBcFaMy+nMVaRbjxJZ9nARINHgL7BxcYJcqlx6Ez7VDcEoX/fJ/9B2MxJVbFALksFLKFMlQsUwRo5ZnL10PDoWwyKpaoRQOnzgLdxIihiG79r1G6j1RLFKGjJmlb4PzhbJmSqe2D53kh9dOtc5lXuQRYm/aAAqz7Pp7qvJMTZizAvvowawZP1A169f5R/xQt7K2iXuPnuI6hXQ0cyehZmojJy2kh/AhfTH3j/PS+DVvwmAUypcD+4+eVSE3rnT5us6zyet8XNGCuVC7iu4BuPfIGRIHK3gXqpYvias376gHJW+/ef8hhNhiEcXijK1Zg2pqae6NRQebs4P5/z4s7rjflozztNr2HKnvC9c7c0HnYTV3jJODgypmYRKVFuAXoHjeuvcQv/f/Bf4U7h02fg6cHB0wsFsbzFi8VuVotWlSS4mmucs26LtzjHLwppIQ43ueJ2dmLCbBz6L475m/45cfG+Kn3qNQv3pF5KOcvvl/b6H9m5Voz5Y5A6bM/Rvdh07CgomD9e1pK0PGzYVbXBeMHdyFvhh4ov/IqShI3twKpY3/AHvQPv5ctv6hNn5qXk/l0/UfNR3/LB6HH0g4T6a+de3QhPIb46HXsClm2yyUNyvKliiIS9duURv1VRcu0ReJt+QNf/z0BX7p9yfKlCiE3p1a4DJ9jocTm8QUQv72m4Lqc33vwWP079IGn2hwzbQFq/A3/T/s1LqhdimyFAJCwAYCSeiL3OEdm1C2ej0lnmwRXIZCi4/lNkztwuWr6Nx3EDw8Pqpdr16/wbGTZ0yrGW1zRCSyzPzTIrJaj4p2yDVln+6z9yXIzwfvjy5CwP27FsWWHbuzviJbESyAmtevpsKEhpd25qLuoc2ehc5tGmFY7/b4Z9cR3H+kC31x3fYtGuA45R2du6Sry0KEjXOP0qVOrtb5rUzx/BjUsz2KFciFVJRIz1aRQl0cMrxNobTiFAasTd/sOVS5++AJtb9sycKIQyE6Fnclihh7axpUL4ci+bJjyrzVJALPq/qGb5dIOGlCqxa127FlAzykZPXfpyzC8xc0MnDaIpU8vmb2KFT+obM6tDw9dLvTQ3TYhHngB+Pl63f0YkvLEWJR2rpxDeWJOXX+GjbuPIx0qVIYnlqt7ySvDIskvoYMaVOF2M8F7Dk8SsKPLVUKHRO1YfC2lvp3lTyBPYdMNCj9vLpy8x690PqxSR1kIW/h7GXr4W4Qvvpcmzy5wd4Rzuu6cOWmEpyG+yN7vUfH5nox84j6NH/5BiW29h45i+aUx9b6+5rqlC9evlHCnjfSpEyKiSN6Kq/VK+pnxnRpsJ/ELnuc+bPIlj1LOiXQWWh9X7uyXtB2J69Wl4Fj6B6/DiGAWzasQcdnRcL48cA5Yjxo4cq/9/T9Uw3Tmw8JZf5ccp+SJ0uMAV1aoVaVMnChMG3ObBlVtaL5csLZ2QnW2kxNn5Xb9x6HCM1v2H5QfaYnDeuuwtXFCubGoWNnsYO8wiy22Njjq3m6ztF9uvsw9LQGdaC8CQEhYEQgLILLFqHFHq2OPfrT3whv/XlOnjkPfv1XFuPEFourF+t034A9b5yA193biE/hQM6zCnj5SM/NIUVq+D98oLYdkur+2IJyi2K6vXnzDpt3HlJ/+OvVKBficqqQcLpzf60SMyxoWPQUypcL39eqqK/b9odayJ8zCzr1uw4Oh4z+36/6fYYr7Ol4Rg/AQWNm4hqNXDS0j8FTY3DYsSyFdjSxNah72xAj87Tj7OzskSl9WiSyEFo5c/GGVlWFlVhkpE2VHM3qV1WeCU4e51CXJj64cjMSnCyMShbNp8TWO/JCaFa5bDHlmWOhxsn7bHkovFOlXAm4uobM2dK8Wi0aVteaMFpu23sUf0xdqB7q7DksSCEyc8a5aNmDvYPm9p+/pLvO3HQPurZrrK8ydNxs/brpCodbOdzboffvqF6plPI8mdaxtp0ksW4E4icKDRuat68upJs4UTx9cdaMafXrGdKkVNfLYWTmyIJFswJ5cujFVty4cbFu6341ApP3pzEQ7Vp9XvLoRxZFyygMzi9DM+dt9KQ8r9bdRihPJgstSwMweDToEBqtOYUS2jdSKJjPzx4tFkWmZmubhsexZ4v/HxnmBWZKnwZPX7zUV0uX+rOAj08h+Zf0f1VMCAiB8BGwRXDZIrT47Jy+EBFzM0iHCW87MU9s+XsjYI8uNBSPcl0SudJbsPne1nlqeNPl25bwXzFK7XEpWFstA94/VcuY/LZqyz7V/YY1KxrlQ2nX1Kx+FfhSmGsdPXDYS8MPNp5mgV9bl08OMc2DLwkqS/Y7CQv2TrCwaESeCJ4yYPU/e6yGyAIoiT68FhCoE8MsEONSrpNmCen8mnl+9DK67hTkxWCL7+aqVdEvC5MwGEDhLx61yQnabCwa+ZWCHs7VaboDzU5fuKa8TdmzZDD7gOZ6j+iByzzZUtJ5XV0/91EV2vjGow/Z0qT87EVMkzKZ1aMzpEut388ewLBaujQ6IXCFcsk4FKvZTcqLY0tPgvUj5e+xeVBOk2ZXKVzG9yNB8PQiT56/1E/XYei5mbt0o/Iqchg6S8Y02Hf0nAr5ae1oS7fg/MFuPzVFi+BQLYdHb9C8a1kMRB7Xf/vuA/6YvABtmtZFmyY11X3//qcBWlNGy9dv36vw997V0+jLxhNsJWHKocNvKR/M0MLSpuFxiSif7Pot4y8cN0iAVipbXF/N3uHz3yJ9oawIASEQbgLWBJetQotPnjN7VsyZPAZd+g3WP79KFCuMts2bhNo3jowVyh/yS1uoB5pUiJF/HeKQROSX6SAhp6AABLzTue5dyv2KJJOvIcm0O7BPllVdtve1PSaXH7M2eRTdGkrgZWtSz3xO0TQK0d2lkOH2ZROxbcUkDKUkXc32HvqcW6WNTGRvBT+AOA/p8KkLmLlkvfIecaI6Cy02HhE3sOuPlMdSB6kp4djU2GOl2ZWb98Bxbg7nzaK27gaP3NP2W1vmzJpe7WZBs37bATWKksN2nCzPxqIvLPNMbdlzBBuonam/98GB9bMwaWQvvcdlV3DYUzVMb0uDp9GwNjlsxxb1MH5odyU+OHn/dHDIVmvD1iUPMmA7euo8nr96o0Jtm3cfsXo4h97YOlIO0IrpI63WNbeTQ70lyPu3YOUWcKiZuZ44dxUzaAAEl/N+zZat3YGPJLh4yoSdB05QHlMRpKIwIeftrSKxffPOQzXIYvu+o9oheP/xIzKSlzQ9ecJe0PQSy9ZuU/v8AwKhhfG53IEECZ9vK13v3QdP8frde4ydsQSDKW/Q0USsvHrzXrVRMG82xHVxBt9Pzhk09y31/QdPtOk2DCcoTMxir2JwTpcfzfviGHxtz1+9RmhtOlB+HHtHtbw87QJLFM2vwrxr6MsO59wxQ/4MlC+pCyFq9WQpBIRA5BLQBBcnvnMCPIussAgtrTeF8ufFgmkTkDQ4nytZ0iQoXaJYqK9SxYvSl/+QX+a1dm1dxhzPlt4NaN0d+HBIeWQYfgAOSdKRIkuo5+B5aStezx+owo36whi2smXfcaXKK9FIQA6vmbMLlLfE4bamvwxGg1qV1INBq6clvvN2iuQ6jxCvV23ShRd6K5o/F4oXzqMm5OTEbX5AszflKuXKsDhj+23sTGT5a7gKC/I2h20454gTmNkTonmAeLT9r5QgzaPKOvYdo09s52N4jiZ+cXho08KxKEOj1Di0xkn042cuVQJIOx/X79RKl2z8C40Q0+yXAWMxhPLKJsxcpor2HjqJFZRAzblF12/dV6Mom/0yiLZrIlECNxI2us9Plow6YccHcd84AZ/FXLXynz0V2jm0JYtKTsyuUakMibj9KsSq7dOW46gfqzbu0jbVsth3rdWyW8dmaE2jR5vUraJCwcyoVose6vo5H0uzLoPG469RfbRNJX65LnP9qXldEi+fxa2+kg0rowd2Rg9KRO/Ub7S+dmG611xuaB40LUeFhp1UEe/v26m5Oufwvh3RbfBENP91sNrH+XJvyKPExnlQPYdNRuk67dU2e6M40b47jerjSV0rU+h2NHmpnGmU6qDu7dCb6vJ9YWPuE37rRkLM+M9RdhrtyOFTLfeNPxs84pQnnC1Fgs0wRMgCqxF93rsOHKs4cbvNG1WnPLH0alQt5+3x9BmbFk+w2uY3FHacvWQdGv00EFtp6g7NKtEIzab1v8OYaYvUS7VPn7EcWTJqVYyWLDDtv7JcUaMLlA0h8B8S0ASXljTPp2bxZSkZ3lLXcmTLgqWzp6qpHzJlyGCpWpSUG/91i5JTRE6jL2b3xfu/esPFwQ7J41h+2CTw9cLdXt/Ax4lCH/mKwf/Da3y8dRMJ6UrjOxsnygfQg+JSq1SqgynjOsDJcrORcxERbGUteRXYWjQwn1PE+5zJA8DGYTMeHcbGQqgWjdArUSSv2uY3/hkZHp3FkzZqxiG0St9+QyP6cqqi9jSq6y3l2LB44xGH3E796hVopNcBtd/H1187lBKo22LQ6Jn60CXXLV4wL1pQvpVmhoJCK+Mlj3rjObw4dDhlWA9MmrtS5SdpQosfxr9Ssv/39DBl45wbzfxo/jDDpEcu52RpNs17x0JlwYqNqozb4pynDs3qqG1+W0/Jz2wt6OFsy88HcQI2m6n3g8u8vCyPGOS+suXKlgl/Du5K+V+LFC/mwjPN37z7WG37BE+NoSrTmyZckydNHG6hxW3xlBw84o+9VvyTSZyvZzg1h3a+QT3aKQ+mP/XX0JPI/d6yZALuP3anz09SJEwQTzsEPK/Y7lVTcY88mRlptnXm2J48oj4+unsxZlBnvO/SGvHiuyov2vLpw6kPL+BDOWOcI2YqtLSGR/bvRJ/TxuTNstOHwDuReE8WnIOm1eMlj5hs36IOfSF4R4wz6O8lf662LBmP9+89kYgGgVhrk/txaOMsmoJE1/KZnUv0p+jzSwu0p8/NE5oAlnPZmKdmhvW4jHMXxYSAEIg8AoaCi1sNq9DSepIuTWpsWrFA2/zPlnbkkjfrKuJiX/pD6OHhgWSragGtdWEMw5696VvYcDParftS+pA96SvTcGN06WiScWEbCTGYEtUpKmP19/pevH5NUxI4w44u/CXNDs65TIYPTNNr55Dfy1dvVT6WJk5M6zwjbxZ7JGyZhPQVJQXzCDBzcyaZtmttm6dh4FnN3VzjWky4t3Y87+Nk+vfvP9LxCSmRWeeRy0i5T6aeIZ6baRP9ZM3c8f+jOclCdxev2LCT5ltajnY0PQB77cJrPBnsk2d0jSQGDH9Cx7Q9/lmchu360ai6TFg+fYTp7kjb5gldeZTnoqnDkI+8SGJCQAgIASFgI4EldfCqyVZ69tFvMTvTM9jEsx1jPFs2Xq5RNefPaShG5TF1g+c+Cs1SJP2cU2XoebB0HOfqpKIQizULbb/hsaa/EWi4Lyzr7BlhYRQRY6+N5rnhUZCWrCl53/hlq2nJ7Owt4zmVendqFkLA2dIWiz7DEWzmjuE505YEj9pLk8r6fTJ3fFjKnOg/DE8amsAGwRmWdqWuEBACQiC2E7CP7QDk+oVAWAmUK1lIhSL5OJ709TnN7RRVxhOzcjiVQ34daX60qDT+mSWeNV1+dDkqKUvbQkAIxEYCX7VnKzbeULnmqCfAcy2xl5F/GohHu9niQQxvr6b/0YdC+ZH7O5Lh7YscJwSEgBAQAuEjIGIrfNzkKCGg+8HtuFELgsOptuTKRW0vpHUhIASEgBCICAEJI0aEnhwrBISAEBACQkAICIFQCIjYCgWQ7BYCQkAICAEhIASEQEQIiNiKCD05VggIASEgBISAEBACoRCIkNiyoxmtxcJHQNiFj5scJQSEgBAQAkIgphGIkNhyym78I68x7eK/ZH+F3ZekL+cWAkJACAgBIfDfEYiQ2HKrPwIuhUrA3i2Kh2T9dzyi/EzMipkxOzEhIASEgBAQAkLg6ycQ6tQP9vaW9ZhdgtRwazHr66ckVygEhIAQEAJCQAgIASsErOkly0rKSoOySwgIASEgBISAEBACQsA2AlbFFv+QovoxxfgpgXd3bWtRagkBISAEhIAQEAJCILYQYH1EOkmvmcxcd6hiy8HBAT7pSwH395k5XIqEgBAQAkJACAgBIRCLCdw/AO+0JcB6STmozKCwKLb4AHs7ezg6OsIza13gyUXgwgLxcJmBKEVCQAgIASEgBIRALCPAHi3WRU/O41P2+kovsW4yJ7jsgsgs4eFdfn5+8PHxgd/bh3C9tRFxnpwEPJ5bOkTKhYAQEAJCQAgIASHw9ROg0CF7tFhoOSXOABcXF/Dv2YZZbDGpwMBA+Pv7618BAQHQ9BnvExMCQkAICAEhIASEQGwhoI06ZFHFoUOOAGovbZ8pC6ueLa0yi6vAgEAEBgUqoaWJLW2/LIWAEBACQkAICAEhEJsIsNjiF4cO7R3Mhw81HjaJLa2yiCyNhCyFgBAQAkJACAgBIQCzYUNTLqFOamp4gLk4pOF+WRcCQkAICAEhIASEgBAwJmBxNKJxNdkSAkJACAgBISAEhIAQCA8BEVvhoSbHCAEhIASEgBAQAkLARgIitmwEJdWEgBAQAkJACAgBIRAeAiK2wkNNjhECQkAICAEhIASEgI0ERGzZCEqqCQEhIASEgBAQAkIgPAREbIWHmhwjBISAEBACQkAICAEbCYjYshGUVBMCQkAICAEhIASEQHgIiNgKDzU5RggIASEgBISAEBACNhII06SmMoO8jVSlmhAQAkJACAgBIRArCNgy4btNYkt+GzFWfF7kIoWAEBACQkAICAEbCYTltxFDFVuBgYHw9/fXvwICAtSPUXNfeJ+YEBACQkAICAEhIARiCwF7e10GFostBwcHODo66l/aPlMWVsUWe7RYaPn4+MDv8WO4/rMFzkdPwP7xU9N2ZFsICAEhIASEgBAQArGGQGC61PAuUxLedWvDKV06dd1OTk5mf5jajgRVkCUyAf4B8PH1gfeDB0g04g/YFS6IwIoVEJQ5s6VDpFwICAEhIASEgBAQAl89Abt792C//wCCzl/Eu9/+hzgZM8LF2QUOjg4hrt2i2NK8Wl5eXnCcORtxyV0W0K5tiAakQAgIASEgBISAEBACsZWA48JF+EQpVv6/dkLcuHFVSNE0ad7q1A8suDhHKw6FDtmjJSYEhIAQEAJCQAgIASHwmUBAhfKIc+yk0kuWgoWhii0+kHO0JHT4GaysCQEhIASEgBAQAkKACbA+UjqJ9FK4xJZgFAJCQAgIASEgBISAEIgYAaujEblpa9M7BLx6iaeTp+HjuQvwf+8RsZ7E8qMdE8ZHvCKFkLpHVzgkSx7LacjlCwEhIASEgBCIWQSs6aVQxZa1S3WfMBnvDx2zVkX22UiAxeq7/YcRRDly6UePsvEoqSYEhIAQEAJCQAhEdwJWc7ZC67zHmfOhVZH9YSQgTMMITKoLASEgBISAEIjmBCIktgI/eUXzy4t53ROmMe+eSY+FgBAQAkJACFgjECGxZa1h2ScEhIAQEAJCQAgIASEAiNiST4EQEAJCQAgIASEgBKKQgIitKIQrTQsBISAEhIAQEAJCQMSWfAaEgBAQAkJACAgBIRCFBERsRSFcaVoICAEhIASEgBAQAiK25DMgBISAEBACQkAICIEoJBChSU0j2i/X7JkRN0cOo2YCPn6Ex9kLCPjoqS+Pmyk9XPPm0W+brrzZvQ8O8d2QsGQJ+pGiILzetsu0itoOrZ23Bw4jcYWyZo/VCt8dOQa37FnhlDKlVmS05P6/O3jUqOy/3pixZBXcX7zE7326/NenDvf53hO30xeuomCe7EieJEm424nKA/efOIMVG7dhTP9uSJI4UbhOden6TXzy8kLJIgXDdbwcJASEgBAQAjGPwBcVW2l690S8ihVCUiPB9HzSFDydvUDtS/lLRySqXy9kveCST9/VglvhQkj3p27m9dfbCpitG1o7Ae07Iv3EcWaP1QoDO3dDmsED4ZQ6tVZktAzy8cG7At8Ylf2XGw+ePMWStf8gaaLwiYH7j5/Ay9sXubNljnC33374gHsPnigB5eBg/aO2aed+zFi8Eh1bNEa7JvUjfO7IbiAgwB+T5y7F85ev8NHLm8RWyDPsol9TmLVsDdyfvcDYwb1RrngRo0pBQYHo2H+4Kju6YTEsMfHz80PHgSPx4sVrVTcR/ZTT8ml/6ttasWkbps5fjqwZ06N3xx9RJH9u/b6wrAQEBmD5+q1Gh6RKkQz5c2VH6hS2/WTU1Zu3cfvBY9SrWsGona9l4/mr19h54Cia1KsOFyfnr+Wy5DqEgBCwkcCiv//G0xfPMbB7DxuPMF/N+hPQ/DGRVuof3FIQPVw8rl6FHT2Q42bMAMcECZCyVw/yVsXD4/FTEaidMTAQH6/f0Lb0S5937xFXv2V5JbR2PN2f4uPVa6oBexcXuGbLqtZ9nrjD7907te755AmCgk8R8OkTvO7dD97SLfxevjTa/q83Vv6zQ52SHw7hsTa9hsDb2wf7Vs2Fa1zX8DShP2bU1Lk4cuocJg3rh1KheHICSWCzubhEzwfa/uNnldAqQdeRIU0q/TVqK+89PPDb+OlqM3+enChAgsXUtN/NihPHBfb2liP4dnbA+w8eeB38mdOWWnsZ06ZGpvRpcOfBIwwYMwW7ls3SdoVpGRgQCPaCsjBPmiQRfP18cf+Ru2pjcI9OqF3JupeXK164dhObd+8PVWyxKBs2cQaWTRlN99glTP2MjMprtu7CuSvXMbp/91CbM6z77MUrxahe9UoitkIlJxWEwNdFYMnKlZg6dw5qVq0a4Qv7omJL673v8xe40LiF2vSnh27J7f/ANXs2JP2xtRJbWj1/8pScrd9Y29QvE9hZfnDpKxmsWGonPuz07cdJlQIlDu9XR90eOhyvDh5R624G5/pw8hQudexs0DLgQFvx7Pn9vzd+4G/YvkeduD49HMwZezMcgvvnQ144wwcfe15YaLF5efnaJLZ86AFt6Rv/x+BfGPAwCAmb6xOXtWpQE9XLl0LKZEktVQlzeSBdq72Ve2G435SF6cmWbdiiiprXr2m6S20/cn+uljmyZMLcP38zW4c9WduXzYSzgwPsDD5HppUdHZ2wfs4kfPD0RLVmHU13o0yxwupVrWUnfCBRxvUSuLmFqGdrQcdWjfViie//8Cmz8PvkWciXIwsypUtrazNW63n7+IIZBQZqX1WsVo/0ne/efcCTpy9satewboHc2XF43SI4OTnZdKxUEgJCIGIE+g8fhh179mDd4iXIliVLmBq7ffcuGpFuqF6lCsYMHWb22CdPn6LbwAGoQXU6tGxlto5WuGTNam01wstoIbb4KhIYPBTfHTyoxJadszOckn2O1zjQA6XgqGFGF/3p2nW8+HutUVloG9baSRh8sJPBwzAueSESGvRPaz8e5ZGZ9ufN5q34QN6cL2EbKBTH1qhm1RAP3783bcfBk2dxgb7ds2clbepUuHPvATbNn4KUyZMpr81FyifSbN/xU0gQz02FukoVyQ83189eLm5r3/HTuHX3vhJnCRLExw+1q6E9hf9YRHzy+oSTF6/h9Zs3qrkL1/6lVLog2meHfOTxSWMQomKBOGD0FHzw+KjqFiuYDz07tNS6oV+evXwNc/9ejxu376qyzBnSofX3dVGxZDG1vXHXfqzZuhv0NEftKuWxfvtu9XBnL9PvvX9V16g1doxyAjcSq1MXLqv+Z82cUbEY0aczqpUrrVXTLznP6satu8qbVKJQPn254Yq/v85Pmyzp58+r4f6123ZD3R/qH9uo/l1DCBkWOkvXbca5qzdIJNqhaP68hk2EWE8Yz1WJLT8fP+D/7J0FYFNXF8dPneJuxd3dHYa7u+uAYQMGDLYB34AxGD6Gy9DBcGe4u7trcS2l3n7n3PSFJE3S1KCl/7Mlee/ae++X0PfPOefehF9rGY0rn40+nVrT3sMnaM223TSwW3tGGsDntYU2795HHz/6UMliBen7zq0pfvz4Rn0ttXvj4Uljps9Vbbv+MJKmjPqBvWmJbBpTOkloe97Kdfx+XaIUnCtXqlgh6tOhpdGxtZ2Vm3fQ1l0H6AF7qQvmyUVDe3Wiyzfu0Gr+EiLCdMDoCTT558EWx9x16LhR217tW9D4mQtoKntn5d+AfA4nzVuqPi/p06aiDs0b6T2AHQf+RHW/qUBb9hykxxxKzpsjK40c8C0lSpBAOz28ggAIhEJgSN9+tP2//6hMzRq0mT1LJYoUDaWHrvrEmdNUt2VLToFISTKGObt5+zb1+mEwvXrzhu49eGCuiVGZ3Lciy6KN2DK8oA/HTxJ17aKKXNzc9FV2/O0ycXNjz5brvXthFluRNY4Tv6mm5xPAIdEvIbb8/f1U8rbAalHfOIS458hJmjp/qeJYtXwpusLCQYSW2Ot3HkqITFmwTN1gVSE//TF7sbZJg3p0oKZ1qqt9ycPSxpLwU6b0bkqIzFu+hnKwaKlQsiht3XOIJhr0X7t1F8lDrHLZEkahnHfvPeksC0DNkvBN2NS27T1Eoyb/ZVR89cZtGjZ2Mn3XsRW1bVyXw1nX9deknZ90uMjls1mk/dxX5yEST9zIybPUjbdE4fzkxR4XaSP28o0uVKx2DJ4kR0qsdaO6BqXGmx+9vVWBs5P5f1IXrt3Un580fM8CxNAkT6sL53Np74vUnb6gC2kbtjPcdmAPmdhH9lBGnj+QlBgWAX6Hw5Rii1Zvor/XbOR8uqacJ5aBpi1cTgN+nRTCg2ep3fSRQ/jzU03lmfXu2JISs/iw1NacV1Der3iuceg3DgG+ZVH+429TqCCLdvmsGdrNew9oypy/6ffh35O8DyLQpi9aQf27tKEyLNAuX7vBXwgaqS6WxiyQO5tR24/snb3E751/QAA9Zg987+FjqEzxwjSwazu6xKFR8QAm5Zy6MkULqX8H9x4+pkHfdmLPsBf9yTmIqzbuoG7MDQYCIGAbgaRJktDeTZupcr26SjzZIrgMhZb0lTFM7cLlS9Rn2DDy4MlYYi/ZGXDsFGsNKxbA/+4jy8zfGSJr9HCO45r600w/r6e68IwMJbldbw4fMRr1w5mzRvu27ETWOP6cU/P+3HmjQ77m2YpfwnYePKYERDlOyjbNKTrHnhIxuYG2YcGQI3N6Onn+Mm3ctZ/Sp06h6upwfo4De/B28ThiMk4czp9y5vya4oXyqzJ5SsL5dCO/70npOMyaO7vOxTuEPVOSmyUiTm6A0r5GxTLKkybemlzcTtrbszioUaG0fizZyOCWmlbPnkQ7eAanCDZTE3E0/q8FqljGGczCT85r6oLldOLsRZrBN9NalcrR8N5d6P4jdxIRJh6HsUP705bdB2gle+EuXtFdvwxy5uJVxUm2xRtXjL1HTzjpfTF7lArmziHFRubON9h9LFbFe1eDw5zmTEKzu9gTJJYqeXJzTWhYz87Mvg71+Wmc/viGDVexV04TWuKxy8widu6KNSrZ3rCd4XaaVClVjtWuQ8eoU7MGhlUR3s6bMys9f6nzTIrQalyrKrWoV0ON25c9X/1+Hqe8oYYHstROvJc5ObwqVpi9TRKSs9RWJiDI59TQ2nDoNn+ubJQofgK67/5U5Zhd5vfZVGw94fwqseevXlM1/pyNG9pXXUPKZMnITcTjvYeUL2c21cbamIZtzwcLcekkkzjE8zdx+AAVnpaJCQfYW7x9/xEltqSNCFIt1+0s/7u7w145GAiAQNgIhEVw2SK0xKP17eDBHMnQfSmWszlx5ox6hO3Mwt86WoqthOXL6q6IXXj+7I7XLIBzU65066XtqldHDk3FMQj5GVVa2ImscTzOnqMrJjlbznwuzpLh/Jlt2fpt6oitG9QOceQqZYvTqk3b1c2x0/cjVH1uDnFULVeKXNljIFaueBHOAyqkF1vDenVRSdOq0uBJ8rrecg7WjlUb6OipcwY1RJ78bV5MErhHDexN3/74qwpbtm5Qy2x4TuucPk0qSptKJ/q0Mu317gN3fR5Z15aNODSju1n2bNdCiS1pd/X2HXX+CeLFVd1qsPjKnikDVeIQo4itdx8+asNRodw51Q1TROCg//2hykWcleXrT8uC0NRWsmdCTISZudy0Ow8eUp8Rv+mT2SuaeFu08YRzTvb8ubJ4fU8eWrH+VfPuiaCU0JVmph49rVxeK5Uurt6D2UtW0a4DR+mv334KET42bB+WbfdnLzjJPwe95dCbsFq+bot6GI4hXlHNbG0n7UNrayq2PHn2Z5eBIxVj8aZ6eus+Z9qxtVeZ/dm4dlWaOGuRegjLby14lWwdUxtbXh/xFz8JTRrmAWZwS8v/rl7om6Uz+KIYj9MeXr1+o6/DBgiAgO0EbBFctggtOWIg37ciYoZpNOEdJ3qJLUcHStmkASWqXl1dj8eFiyrPx/DiIiv5PDLGsWdRFRnjGF5feLYl3CReEck9MrcMQCG+QfzAnpUVG7aoPCY5hniA5JGCZ6GZy1Py56UOzNnqLbtUqEbqxHuVMZ0bHThxWoVQzLWXsgCe9RZe8/b59E0kMc9O1Sxxwk/bHgZiSupTJNOt0xU3bsg5qiJ6/hgxiENMa/XhS0ncFlHm4+tHQ3p20g5BH9jdvJFn2ok14Zu4OXv77oNeaInXI0Xy8K0RJgJEzFB0pklp7OExPX5Gg1mRMjPxI8+OjUiivDb+tdv31PvZisPR8ePqxLjkcbWsr/NsebL4unHrHmXJ6KZm+Em/0NpdunZLGz7UtvqGvCFh699mzKMO7Llr36Suyptq2XuwYRP9tix70qJeTfqec/4uXb9Nf6/dTOP+XMCTDXSiWmsYljG1PvIquVfXbt01LKLrd+7RN2VL6ssk1w4GAiAQOQSsCS5bhZacSc5s2WnWhAnU98cfOYVD97e2RJEi1JFzvEIzyTUukCdPaM1CrY8WYsuFb9iFrnE4zsAjFOTrSzcGD1Wz+7SrcORvtYWuX9B29a/Pp0wjb4Nwo7k253J+WnvL2jjuf83TjxvaRqJKFc2ez9VvapDPoyehdY+0+qXrt6ix2lqYKbd170FOCN9Dk34ZQklZpJzjhO8/OLdF1oP67+BRvdgynCF3+eZdkmTvq/wqHqyqFUqr0NbeIyfUsSTMKN4rMREKkkBuai48wUHsCie116pcjh48fkoHT55hz1dq5YkybW9uPxsnwmu2ivO+srOgdGRRvmLDdq2Yw5mZ9duhbYgn6reZ86g/59xMGzWErt++SwtWb6QjJ8/SNuZkKLY2cKK1eHXqVKukwqfmxhZxu3jqWBozdQ7d4BvvBk7U/85C8ra5/lpZhnRpVW7QEWYtazslT5KINnGitTVbFvy+ly9ZhAbxelumHiFrfQ3r3J884yTyW0oU3+JQ27SFy6hogTzs+SypJkhIbttWPhd5TcSLB89Y/A+dPsdh6IVT9cPIDEpr7SRELfbs1Ss1McBaW/2gvPHytS6PTmYFSvhYPsuyPEWFkiETV0/xpIxl6zfTHz8NokJ5c5HkyV26fktNznBwdKR3nO8l72doYxq2NTwXOWeZ7btm626qX60CXWQBKV9yfhnQw7AZtkEABCKRgDnBJcNryfCWcrRMT6FA3nw0d9JkfYJ8cl48u1Sx4qbNomw/WogtdXXBQkvyqT7evUuX+g8kJ/7DrwRYKDMC/EKp19MLpZ2lcbQ1oPTjhDJ9Pfx+HP0RbN6QmVoihiSnqFr5T9+wDQe4yt/GRQi06zeMvRO1SBbJ1LxNWTKkN2yqQmkiwiQJWTw1cnMSC2B237ZtpvKxJOQlOVqDx/xBL/hmqAmt1Zt28HIBWdnjpQsDp0yRTPWV8k3/7dOPJTMEJWwps9c6fv+zOjfVkJ9Onb9Epeq3UceeNmooFeA8qjacAL+MvRQ7eXHJA7yKuzOLOJlZJlaFBYEsT7Dgn/X6sOLkuX+TG894/OWPmaqNtB3K1/Mb53HdZy+WeLIGjp5I9WpUoZz86wReHKYSy8ahR81kEdPlwQt+tg726Gh1pq8SHmzbuI5aZ+sp5xyZmghamY2nsZR6bXFTEUoThg+k5jwBYSvn0EmbBp37qrwkw/W1+o38Xc2IMxzbPXjR066tm4ZLaGnfbRbzIrjyEJOQap0qFagHLwehLbo6jPPhBo2ZTO36DlNt5LP2+zBeB89koVpr7SRnS8Rgy14/0Np5U8haW3WQ4CcJB4sHVd4vMQkN1v6molq4t1ThAkae3JqVStPmPfupVe8f1OcnXhxX5eUSIViURfGcZaupBdfJDFxrYxq2Hc0zWZUxLJn52pw9ZxNmLVAPKW/JIfIcmTLq2pg8i+dbHjAQAIGIETAVXDKazDq0VWhpR8+eNSstmvGnWvohU4ZPf++1+qh8/aJi6xLnO3mYxFIdg+zImV3xCTj3SftDdW3ICHo3WPeH3hyMJLwsg3xvvvzvWnPVqiyNgxPZMo6W/+XLgmNbttyqb3J7R3Iy+KN5pGJV8tIvbRrykKm4vXbuIWsjt2T9zn1qQFn/SW4q5ixOsIdJbuSLVq1XTeSGWb1S2RCJ1T9wGO1nFikiUKS95DEVK5CXWgUvktqAl1U4ee6iCsEdPH5G3dSaceK0JqY8P34K+3VqWk8tDyFiTMaSY8pin93bNtWf5gcOfZkzae/n56+qenL7eK6uKqlayuUh1poTzru1bKy2ZTamoXn7+hjl9kiIUCyO8ydGm9jbtym4k3gtZNaaZkfPXFDhQVmKQmbghWYpg0OX2rkZtvfh6zBXLm18/XSzXXJlzcTLQfRTkwGEvQgt8S7d5C8csu/Dnl5T8w0OsSZPFHIGp2lbc/vyeTm2cZm5KqMyWU1+yeT/0UNep0omLGTl5H1NaEmiuTzErLWT8O36eZPZu+RJiflzIGZpTFVp8CQeVJnFKN+VtHXYerRporx/Bs1UiHHhxNEk3ssA/kIkQk2zgizwZaHeoOAvStbGlGvT2krelSGj77u1o04tGiivcHrOTTQM2xq2k+MO69VZOzxeQQAEIkjAUHDJUGEVWtrh3fjXX9YsWqztfrZXO15HIqQ/ng8vxb78B96D45vJq9cn/53abenTuV0qW/nTDrYijUC+w3ttHmvV5p20gb1Gc8YOJ7kxmDNPFjQSQpG1jWTmnZgksRuGDU37vWKPlYuzY4i1lLR2MsPMk6fFp06RzChhWKs3fJXcJy/+LEX0Nw8lOV9CbHIjleNqi7MaHiu0bZk5KLMW5fqf8mw7uYYs6dOGEKqyttb/eHHPXwb00s9gszb2jXv3qX3fH0m8duaWL7DW17BOrtGdZ9XFZXEiMz+tWZ32vZUoi4zV/q0dB3UgAAIgAALWCThWr0cvd26kBJzbKdEXyfUyNIgtQxrRZDssYiuanHKsPw3JW6vJK7qLyU/6jB7Ui5cq+JTEH5mAZGFNWT9KPIYS6t23akFkDo+xQAAEQAAEwkggNLGly1oN46BoDgIgYExAQmP9OcQkdvzMeX6EnMhh3CP8e7J+kya0hvfpFv6B0BMEQAAEQOCzEPiiOVuf5QpxEBD4TARacvJ001rf8HIFHhEOmVo75a6cp1a/WkU+RhKroWBrY6AOBEAABEDg8xGA2Pp8rHGkWEBAks4jmptmCyZZFR0GAiAAAiAQMwggjBgz3iecJQiAAAiAAAiAQAwlALEVQ984nDYIgAAIgAAIgEDMIACxFTPeJ5wlCIAACIAACIBADCUQIbFlb+a352Ioh2hz2mAabd4KnAgIgAAIgAAIRAqBCImtBMUKR8pJYJBPBMD0EwtsgQAIgAAIgMDXQCBCsxHTDuxPdg4O9OHMOfJ/p/utuq8Bype4Bkf+vcL4RQpRmv59vsThcUwQAAEQAAEQAIEoIhCq2LK3t+z8ckiegtL9OjqKTg3DggAIgAAIgAAIgEDMIGBNL1lWUjHj2nCWIAACIAACIAACIBCtCVgVW/JDivIITMc/Wnz3brS+EJwcCIAACIAACIAACHxuAqKPlE4K1kzmjh+q2HLgnCzfsqXIfu8+c/1RBgIgAAIgAAIgAAKxloDDvv3kXaYkiV4SB5U5syi2pIO9nT05OjrSx/p1KejseXJcuAgeLnMUUQYCIAACIAACIBCrCIhHS3RRIE8S9G5QT+kl0U3mBJddEJslOlLl5+dHPj4+5PfoEcXZsIniHDlO9o+eWOqCchAAARAAARAAARD46glI6FA8WiK0nNKlIxcXF3Jycgq72BJSgYGB5O/vr38EBASQps+kDgYCIAACIAACIAACsYWANutQPFgSOpQIoPbQ6kxZWPVsaY1FXAUGBFJgUKASWprY0urxCgIgAAIgAAIgAAKxiYCILS3lyt7BfPhQ42GT2NIaQ2RpJPAKAiAAAiAAAiAAAmQ2bGjKJdRFTQ07mEv6MqzHNgiAAAiAAAiAAAiAgDEBi7MRjZthDwRAAARAAARAAARAIDwEILbCQw19QAAEQAAEQAAEQMBGAhBbNoJCMxAAARAAARAAARAIDwGIrfBQQx8QAAEQAAEQAAEQsJEAxJaNoNAMBEAABEAABEAABMJDAGIrPNTQBwRAAARAAARAAARsJACxZSMoNAMBEAABEAABEACB8BCA2AoPNfQBARAAARAAARAAARsJhGlRU6wgbyNVNAMBEAABEAABEIgVBGxZ8N0msYXfRowVnxdcJAiAAAiAAAiAgI0EwvLbiKGKrcDAQPL399c/AgIC1I9Ry7lIHQwEQAAEQAAEQAAEYgsBe3tdBpaILQcHB3J0dNQ/tDpTFlbFlni0RGj5+PiQ+zsf2vPYmY49j0uPPyLVyxQk9kEABEAABEAABGIPAbe4gVQyhQ99k+4jpU3koi7cycnJ7A9T27GgCrKEJsA/gHx8fejh64809VICypvSkUqltaN0CSG2LDFDOQiAAAiAAAiAwNdP4NH7QDrmHkSXnvlR//wfKH3SuOTi7EIOjg4hLt6i2NK8Wl5eXrT0ClGQczxqmivkACFGRAEIgAAIgAAIgAAIxBICa68FUICPJ7XPS+Tq6qpCiqZJ81ZdVCK4JEfr+Atn5dGKJdxwmSAAAiAAAiAAAiBgE4ESHPE7+dJZ6SVLwcJQxZZ0fPzRAaFDm5CjEQiAAAiAAAiAQGwiIKlVopNEL4VLbMUmWLhWEAABEAABEAABEIgKAlZnI8oBrS3v8ORjEA0+GEi7HnKOvXdUnN5XOGYcoqrp7WhCeXtKE9fuK7xAXBIIgAAIgAAIxD4C1vSS1TBiaKj6HmChdRNCKzRORvUsSoWZsIOBAAiAAAiAAAh8/QQiJLYOPrC4asTXTy6CVwh2EQSI7iAAAiAAAiAQQwhESGyRbwy5yuh4mmAXHd8VnBMIgAAIgAAIRDqBiImtSD8dDAgCIAACIAACIAACXxcBiK2v6/3E1YAACIAACIAACEQzAhBb0ewNwemAAAiAAAiAAAh8XQQgtr6u9xNXAwIgAAIgAAIgEM0IQGxFszcEpwMCIAACIAACIPB1EYDY+rreT1wNCIAACIAACIBANCMQ6gry0ex8KVFKoq5Z7ahISju6/Y5owY1AuudufJa1ctmRswUZefpNEDnywu0FE1tevf2+ZxCdu288ZnTc8/Pzo19/GU0Fixamxk0aR8dTNHtO7u7udPvmLSpVpjQ5OTmZbfOlCxfNX0RPnz6hocOHfelTwfFBAARAAARiOIGYI7ZYPK1qYE/NshurqJ9K2NMh9yAqvyyAKHiN1a31HSy+LSeeBpE9D1GMxZole/QhiNLP5PGiue35bzedOnGSEiRIEOYzDQoKpKtXr1Py5CkoZcrkYe5v2uHhg4fk7eVN2XNmN60Ksf/XtJl05tQpGj95IuXLny9E/ZcuePTwEa1esZISJ0ka7lO5euU6HTtymB4/fkwZM2akPHnzUJFiRcjOzvjzG+4DWOi4ds1aKl68OMWPH4/+2/Ef1W/UkOLEcbHQOvKK9+/dRwkTJqTCRYtE2qCHDhykuPHiUREeMyrGj7QTxUAgAAJfLYF/liygZ/zFu+/g4RG6xqj9yx+hUzPu/I+B0Dr9xJcmH3tP8ipWLq0drW0c8lIevQ9QbaSd9th625t23PLW73sFayo//vUcrc02ro/uJmJp7Zo16jTrNGgQ5tO9c/suDe47gMaOGh3mvuY69Ov1HfXv3Yc+en00V21UFhiog+7iHPUiwOjANu5sWLtetWzQpKGNPYybrVm9lgb17UfHjh4lZ2dn2r3zP/p52AiaPmmacUMLe9dZBHfr2Jl8fHwstLBcPP+vOXT/3l16+eIVLZ6/kLy9vSw3NqmRz5Qc99LFSyY1IXdN2+7ctoNOHDsRsmEESnaxWDx2+IgawZbxI8ItAqeJriAAAl8pgVVLF9K8P6fQR0/PCF9hzPBssYOhebBHa+G5D9R5A99AHJyJAt7Rsa4JqYSbC1VLL2LL+PcGh+33pKVnTG5YjvxL0Gwj/vugXg90TkTl0zvTE48AKjaH45JiDhzaco6e4S3dCRJ7hs7Qo/sPKVee3JQ7T06t2OjVn0WNo70DyY3R18+fXPjGr5nnB92Hx9NTx0Ert/QqY/j7B5gN+0mdj7eOs7enN8V1jWtpGFX+y6+jyfODByVJGn7PkekBRMDZ87VaMo2F1IuIcXExL/Tev3tPWzdtVsPUqlPb0nAWy+/dvUsLZs+heg3rU/dePfTnJGFJ8ZZVq1XL4vulDert403uj9yt/gi81jYyX4OCgtRxP34MXTCbth019n+ReSohxrJl/C/FLcTJogAEQCDcBEYPH0R7dm6jBSvXU5asoUdKDA905/ZN6tyyIVWpXot+HjPRsEq//cT9EY34vjdVqVGH2nTqri83t7F62WJzxeEqixFi69ssn66t805/ItckwQXxqNT8t3z3fMoCiS8lfqpPDXmrV7H4VDZzfKOynvtZkInOcHLVldsFxx7tOKyoH9eoS7TcWbta59Vq1LSx0fl5eHygf//5h70qx5QYS5AoIcWNq7vWBUt0H5zbt27T2dNnVD9pv2/PXrXtGjculSxVUj+el5cX/b1gMV1mT8ftW7dUebqM6aldh/ZUrkJ5tf/y+Qu6fPmyvs/hQ4coQcIE5ODgQIWLF6P4PKZmly5donnsefH11Xkkm7dqQZWqVNaq1auIpm2bt9PWzVvo3p07JOefM2dO6tClE//D030Q/pw6gy7zWK6urlSiVClaxx4+DxZJ31SvTn0G9DEShOvXrKOj7B25dOEiuXA4LU1aNzXu4uVLKHnKFEbHlp2tW7aqsjr163F41vizE6KxmYJ/V61R4cfO3bvphZY0a9W2Fb1/+5bevn6tesl1rl75L+3auYO/NXlT0RLFqMe33emdx3ua+sck1WYgex7/N24MJUueTO1rTyeOn6CN7H27wtyz58hBVWvUoGo1qmrVob5KyPefFf/QkYMH+VwTU4NGjahB44b04+Bhqu+sGX+yQA9SnwXx0h3ct4/z156ySMxDLVo1Z4GfJ0Tbc6fPUuo0qdU43iy858+eSwcPHCBfFrZFSxSn7j2/pRQpkpN4qC5dukwJOMy5b89+DhPGoWYtW1H1mtWsnvf82fP045/k0PnGtRv4M3BRvZ/de/agFKlShMrN6gFQCQIgEC0I9Bk4jHbv2Ep1KpakZeu2UZHin+5J1k7wzMnj1KZRLUqZOjXJGObszs0bNLRfD3rz+hU9vH/XXBOjMvk7GFkm7qBobyWCNZSvclzpboA1c9rR9e4OdL1vMro+OANd/z4tCy7jSymdxp6+zWf8yJMk8uAZH+3z7d29c5fOnTlLKVgslCpXxujAyxb/Tf+uXE3v3r6j8pUrqpvdsyfP6O0bFqXBNrj/97SKvSxiIlImjB2vHqNH/MIhqPvBrYhOyk193XoltDJmzkSp0qRSAm7c6DH8YdWJhtmzZtPvY37T95k1Y6Ya67f/jaV9nFNmaOKJu3n9Bt2/e089nj59ZlittqdMnEozp01XgkgK5PwkL61Pj158c9WJuiOHjqj+165cZTG4ULWRtrt37qT9+/bLprJDBw7R3L9mK6FVoVIFJSxEwIm9MeChCvhJJhys55wnsfCGEO/evkOFOTfLOdgz6u/vrw8H9viuJxUrWUyN/8+yf+if5cupVr26NHDoIDVh4JeffqGkSZNR3Ya6sHCnbl1YuCZU7bUn8byNGv4zpXVLS+Mm/E4FCxeiKRMm0quXr7Qmob7+OXU6ebH3SvrXqd+A5sycpd73tp3aq741atWmHDmy0+mTp5SXrmr1ajTq1//x9xkHmj5lhmpj2vbB/fv05MkTVTfnz7+U0GrVpjWNZrEoXrqxo/7HnroAesWfm907dtKz589p4JCBlCpVapo68Q8W4H5Wz1sb35O/HIwb/Svlzpubfh0/jrJmy0bjfh1DCRMntsrN6uCoBAEQiDYEkvDfwPU7DyrRJOJJRFRoZii0pK+MYWpXLp6jgb06KaEldW9evaRTx49YfcjfrMiyGOHZ8vSVC3ZUswi1C8+XJJByJDZRVyIdDdhcfelPd94Y/xG/8lYamfTTBo0hr+vYWyPWkGcgSpjQ0C6cv6B2xQvRoXNHGjB4IO3a/h89fPhA36xl2zb8AT5FF4PbihARS8Q3LPFOaFaEPRJ9v+9P+QsVYK+EzgvUolFTFTK8f++BCgPKjdiRZxwc2HdAdStRuhTFcXEmJ5c4VKhIYW0o9Vqjdg3KywnxC+bOpxPseTO1KyyeRDCJVa5Wldp2aEvunKw+bfJUesEeNBEJM+fOor/mzaJWTZqrdqXKlqHO3bvQ5AmT6CqLsetXrlFV7ismHjkxEaWNmzWjzFkz04Wz52j79h2UNm0aVWf4JEJNxJ1cg5ubm2GVzduv+B9wgYIF9O2X/b2MVi1fod8vUqwY/e+3X2k1ex/r1K/LCew6YdWlR1f6aciP9OH9e8qaNatqL5MHNNGmDWDHrL8f+gOVZ8+iN3ses2bPpqpEjJh6wLQ+pq/izRRhac9jNWrSgPLmzcXvfSJKnyGdaiqcJMSbkkPNP/86ioqz1+3VqzeUPn0GOnrwMIeT/SkPh6/FtLZqh58kRLtj23bq0rO78nJJeVe+thF8bU8esweaTTyMQ34cqjyQyVKkpF5dutETnqGaMVNGVW/tycfHV33+Xrx4ydebnHr3601Vr1YlF57Vao2btTFRBwIgEL0IaIKrYfXyyltlzcNli9ASj9aQPt05h/VTPrb0s0XIRRaZGCG2TjxhBcX3bXs7vmwRrPwlfuI5H7r48DU1zxuPOhcyH+4Zc9SLlp0zFlvkzG1lnBhq4lESz4DcsKrWqhHiKspXrKi8PiJm5CHt8ubLT7Xr1tG3bd6SQ0G5ctGw8z9Q2v3oqN4AAEAASURBVHRpaciIH/V1hhuBnOf1nD0Q4vm6ce26YRV5euryeiTsWKJkcb3Y6tOvLyVNbj4XS2bipc+QPoS3Rhv44jmdUJT97hxSS8ghxNTsEq7fpBGpxG/2iH1gj4yUa9aAZ9uJMJIZayK23r0PzrvjBmUrllOeORFqkrwvliNXTirHjFxc46h9w6d1HDITaxSBZTRSsnjQBK+M1bhZE6pRq7ps0rRJU9Tru7fvlWBYyyFHeRiaOY+bYb0rn/d1FqV/TpmqxpCwblit74B+NGniRMVEPh+VKlemnn17hxjGJY4rbdu0hcTjKSaezdDs6dPnqknu3Hn1TdOwF07szbs36jV1mjT6UK8W4vZlEWWLyWer38ABtGDefNq5dZs6J/EEFuAvBDAQAIGvh4AtgssWoSVEIhoOlFnREbUYIbaW3AiiRbV0YuthCwcqvz6A7j12ph3v7WlZzk85QaYw7Bw5yd3F1bQ4Ru9v3vgpedswH0q7qHqNG6jQ4batW5WXRhLXZZkFeSxcvjTEMg9+VsI30/iGLp4MyZuqzeEu8Xxt3rhRH7bTjmn4GhG3a2BgoBpKBEAczsfSLEH8T+LKm70thtedLIXOXRwvfkjBnS9fPvZ89FE5XRLKEhPRKI/kfNOuWLmSKpOn82fPq9BlpixZInTjzsrhNxEBIorFOyR5X/KQ/Lc7HP7NxmGvuPF019a5e1e998eLl82QtccyZM5IEh61ZAf2H6AtGzfRiFEjqTiHJD+y6NW8fJb6GJb7cL6cn78fTfvrTw4184zekydpBnsORYRWDxaFWvuVS5bStWvXaOa82ZSBRd3hg0dUCE+rN/eaIPiP0vNnT/QTAbTQtOSXXTx/MULLX7x584Y9YJloxb8rVehzz+49SojLchcwEACBr4uANcFlq9ASIllz5KTx0+fQiIHfkQdHD8QkF6xZ205q29qTHedz58lf0FoTm+okphb9zceJJhzRAUoX347utnUkj++dKahnXEr26Z4c4jqW1IpDQT84Gj08B8YIfRniWqRAQjRbgmfK1QsOP5k2XDxnPj148IAkAXzRiqXUf/AgfZOjnLyumVPwsgvi9XnLiduS1CyJ10sW/a28RyKaRGiJNW/dkkXLd9SyTUsSz42pGa4ddY2FjMz8k3Wmli5aQvc5T8tWy5Iti2oqAnH7lm1qFqWEvLZv2aLKRfSZS2q3NP6u/3apcUaN5bDd+jX0y5jReu/Mgb37jLqtXf2v2m/cvKlReVh32rRtrbqM4by2O7dvk+QYHeJE8VHsHZIQpZgs5CrrUe3m85NkdfFm/cVJ6RPG/U4OHNqTyQViLzlUZmof3n9QRbl4Bqqvny8tXbxE7QcFC1XT9qb7Mv640WOVRy1RogRUtnw5JaYlZ0r+qIhJ/pe8/+95xqh4DdOkTUsvXrymdf/qvHABfCzTttpxxPOUMXMm9ihuUGJIxhXvWKkypYxmw2rtw/r6nq//+z79eILHWRaAGXjcMmoICW1a4xbW46A9CIBA9CCgCS5JfNdyuMIitLSryJO/EE38c4E+nytJsuScQ1sm1EfREqV5MpZlp442fmivMUN5cPhp6N4g8vB9S/+rnFhFAeOz00pS3ffe9aakrvZUKLWzflFTKbcUKbRUHiidornt2bVH3bDLVCinwmvmTldmBkoC+nc9elLNOnU58dhH30xuTpoZ5ve0adpSK1av+QsU4HyrQpx8XVB5fFYtX0lXL1+hmyykRJyJ/TF+PN/sZqiwoOxLiEkS8SV5WTxT2lIQgTyboz0nXouoGDpwCCfqv5bmypYsWETykMVD5/09X83Iy54zh0qin/3nTFq7erX+eNKhbft2qt/wH4apV3kaPngo9eWwkiRlix3ef5A25F2vPEa3btxUyf3fde/J+W1N2DOXkAIDdN6zDJkyq/byJOemFodlMVehYnl9eXg2RAyOm/g7J5JP4aT+T6G50uXLUo/evdSkAxm3D+fCjf5pJMm5iYmQHDHyZ3J0dOSk76wqz+zbzt1o/tJFRu/1N1Wr0Hb2WrZt1kr1k9w2YfYTr+O1Yftmxd7w029Hxt+nZHx5P2bP/IvF8GI1hgi/6hySFtFclq9fPF2O7BVu3LQJjf55JDWqXU+1a966Fd3lCQajhv9EYyeMN2orDeyC/9UNGjpYXVuvrj1UP8mZ+/l/o9S2PIng08w+WOBp+yFf7fRFMn5G9rBJSPynocODr5VzF5s1psxZMivvoRzLHDf9INgAARCIcQQ0waXlcMkFiPiylAxv6QKzZM9BU+ctUUs/pM+Y2VKzKCm341imWZkhxTJF38PDg1ruTkTL6rG6MbHUM3gZhs9pfl5EXq8pZ3onShvXnvbeYCHhxOGjIL6B+ngQJQ4WE+8ecxnneZkzRxZl8VN/qvHmWXre7HFwZuUaN/mn8s+w9fS7sGnd3t17qVDXhKmT1Irk5k6xf+++SqwY1okQ+qZaNWrTvq1hMS8RsZoWzp2vL5MQWjn2dDRr00Il3p8/d55ms4gR8SYm4xQqVFglQIugmjBlkhIGUnfm1Gn6fdx4vfdGa9uxa2eVYyWCRm6C5kyExvxFCygeh9sk/CbT/PdyeEgzqW/fsQOHMuuoogHf9dPnkIlQ+45Dhb+O/HQzl2UiZFmJhfMW8MzMVdow6lXGKlKsKPUd0F+/svrc2XNoPedrtevckVqyFy8yTNYee/78peKRkUOD5n6WSLxH7o+fKEGcgVeZFyGkmfR//+6DEohameGrrHKfNEkSihs/nvJCvX75OkxeP1l89i4vbJuJjyvcDU1mPMZNEE99BsRL+ej+A3JLl05dg4RDfX389Odl2NZwDPE0PXr4kL1Njtw3rdEyGIbtwrstCfKycGu27FmM2IbGLbzHQz8QAIEvT0CWbBDBJRZWoRXVZ99mkx+t/Oad+kUXWcxa8/5rx41ZYks760AWeaIRZfHRGGxhFVsiZiSvydrv9clNyNmJ32ieTfCaZ8bFjxff6k1YbqavOWwk+ViGi54aYpUkeScWArYsQio3fReejWh6Azccz5ZtmS33jJeGkAVSLSXchzaOJNN/ePdOnffzZ89V83Tp3ZQHx7DvxnUblYCcMGmCEi+GddgGARAAARAAgdAIfJ1iK7SrjiH1YRVbMeSycJogAAIgAAIgEKsIhCa2PiVPxCosuFgQAAEQAAEQAAEQ+DwEILY+D2ccBQRAAARAAARAIJYSgNiKpW88LhsEQAAEQAAEQODzEIDY+jyccRQQAAEQAAEQAIFYSgBiK5a+8bhsEAABEAABEACBz0MAYuvzcMZRQAAEQAAEQAAEYimBiIktXh8UFk4CYBdOcOgGAiAAAiAAAjGLQITEVvkMn35KI2Zd9pc/W7D78u8BzgAEQAAEQAAEPgeBCImtaRXsqWp2FlxxPsepfiXHYFbCTNjBQAAEQAAEQAAEvn4Cn36MzcK12hv8aKxpkzRx7WhpDQfTYuyDAAiAAAiAAAiAQKwiYE0vwb0Sqz4KuFgQAAEQAAEQAIHPTcCq2JJfrZaHW9wAevQ+8HOfG44HAiAAAiAAAiAAAtGagOgj0UmaZjJ3sqGKLQcHByqV0p+OuQeZ648yEAABEAABEAABEIi1BE6wPiqe3JdEL4ngMmcWxZZ0sLezJ0dHR6ri5k2XngfQ2mvwcJmDiDIQAAEQAAEQAIHYRUA8WqKLLrA+qpbeV+kl0U3mBJddEJslPFLl5+dHPj4+5P7Oh/576EwnX7rQ448WNZqloVAOAiAAAiAAAiAAAl8NAbe4gezR8lFCK20iF3JxcSEnJ6ewiy0hEhgYSP7+/vpHQEAAafpM6mAgAAIgAAIgAAIgEFsIaLMOxYMloUOJAGoPrc6UhVXPltZYxFVgQCAFBgUqoaWJLa0eryAAAiAAAiAAAiAQmwiI2NJSruwdzIcPNR42iS2tMUSWRgKvIAACIAACIAACIEBmw4amXEJd1NSwg7mkL8N6bIMACIAACIAACIAACBgTQKa7MQ/sgQAIgAAIgAAIgECkEoDYilScGAwEQAAEQAAEQAAEjAlAbBnzwB4IgAAIgAAIgAAIRCoBiK1IxYnBQAAEQAAEQAAEQMCYAMSWMQ/sgQAIgAAIgAAIgECkEoDYilScGAwEQAAEQAAEQAAEjAlAbBnzwB4IgAAIgAAIgAAIRCoBiK1IxYnBQAAEQAAEQAAEQMCYQJgWNcUK8sbwsAcCIAACIAACIBC7Cdiy4LtNYgu/jRi7P0i4ehAAARAAARAAAWMCYfltxFDFVmBgIPn7++sfAQEB6seo5ZBSBwMBEAABEAABEACB2ELA3l6XgSViy8HBgRwdHfUPrc6UhVWxJR4tEVo+Pj706MMr2vzuGh35cI8e+74zHQf7IAACIAACIAACIBBrCLg5J6Iy8TJS3cS5KV38ZOq6nZyczP4wtR0LqiBLZAL8A8jH14fuv3tOY57uoYKJ0lOFxNkpo6tuUEv9UA4CIAACIAACIAACXzOB+16v6MDbm3Tu7UMakaYKZUyUklycXcjB0SHEZVsUW5pXy8vLi2Y/Pkzk4kjt0pQKMQAKQAAEQAAEQAAEQCC2Elj65DgF+vjRt25lydXVVYUUTZPmrS79IIJLcrQOe95THq3YChLXDQIgAAIgAAIgAALmCJRPnI2OsE4yzGk3bReq2BLB5e77HqFDU3LYBwEQAAEQAAEQiPUEJLVKdJLoJXmYM6tiy1wHlIEACIAACIAACIAACNhOwOpsRBnG2vIOT7w8aOCxrbT38W0iH0/bjxqbW7rEo8puWemPUrUpjWuC2EwC1w4CIAACIAACXw0Ba3opQp6tfkc30947FyC0wvJRYVEqzIQdDARAAARAAARA4OsnECGxdfDRra+fUBRdIdhFEVgMCwIgAAIgAALRjECExBb5eUezy4lBpwN2MejNwqmCAAiAAAiAQPgJRExshf+46AkCIAACIAACIAACsYIAxFaseJtxkSAAAiAAAiAAAl+KAMTWlyKP44IACIAACIAACMQKAhBbseJtxkWCAAiAAAiAAAh8KQIQW1+KPI4LAiAAAiAAAiAQKwhAbMWKtxkXCQIgAAIgAAIg8KUIhLqC/Jc4sSLps5Nb3ET6QwcEBtLWh9eJvM2tUm9HzfOWokppslAqXpH9/Ct3WnDjND16+VjfX23Y2VGXghWpTMoM5OroTMde3KdpZ/YRBfip6gqZ81Ei5zjGfQz2Dr94SK9fPzMo+fKb/n7+9OsvE6hg4XzUqFm9L39CNp6Bu/tTun3jLpUuW5wcnaLlR5AWz19Oz548px9G9LfxqtAMBEAABEAABMwTiJZ3ug3V2lM6A7Glnfo9z7fUcf9q2n/noipyTZyC7jb9nlLFiac1ocYZ89CoIlVp+pWj1HfPCl15/CT0vs2PlMDJRd+uVZYCNKF4bSq8bhpdeXKXdtbqQi72Dvp6042/b52hDtsXmRZ/0f3d/x2gU8fPUPz48cN8HvJjmdev3qLkyZNR8pRJw9zftMPDB4/J28uHsufMYloVYn/WtAV05uRZ+m3SaMpXMHeI+i9d8OihO61evo4SJ0kS7lMRvutWb6FEiRLQNzUqWh1n+5bdlClTesqVN0eIdmdPX6D37zyoYpWyIepiU8H+PYcVy0JFC8Smy8a1ggAIfGECq/5eRs+ePqU+PwyM0JlEzzBioO5Xsz18vekwC6GLr55QIN+8MsVLTDtrdtZdMHuq7jTpr4QW/842rb99gaac2UsPPN6o+j55SlPLfGXU9tHaXZTQ8mEv1rxLR2jmhYPkGxhAziyujtbrqdrsvH+NTj17oB4yntg7Hy992Z4HN1RZdHmSm/n6fzeq06nXsFaYT+vO7fs0qM+PNGbkhDD3Ndehf88hNKDXEPro5WWu2qgsICBA7bvE+SR+jRp84Z0Na7aqM2jYpE64z+TyhWu0YPZimvz7DPJgsWTNdmzZRVcum/98nT1zkfbtPmite4ypk89s9w596NL5q6Ge8w3+IiBtfXx8Vdud2/bQiaNnQu2HBiAAAiAQWQRWLVlO8/6cSR8/fozwkNHSs6Vd1QH3O1R31VQS7dO5cEWaX721Ekji0WqULjulDv4h5847ltGiC4eI7O1owM4V9LTfHyqkOKdsI1rJ4ipP4pRqyNU3z1O37UvU9uHHd2lmlWa6Q3FYsf6/0/lXt4NF3vfTKD57wf69dYG6bl6ga+PMqJwse750jT7f85lTF+jh/ceUK08Oypknm9kDS/jVwd6e5CbnyyFHF2cnfTvPD7qQrKfnB32ZtQ0ZI8A/wGzYT+p8vH1Ud29PH4rr6mptKBo5Zhh98PCgJMnC7zkyPUBgQCDZO1j+7qCxkH5yA3dxcTYdQu2LMNq2aYfarlm3qtk2thTu/m8fpUiZnF48f0kH9h+lOvWr29Ltq24TxP++3B89JS/v0H95wsvHW7XVfth19Lgfv2o2uDgQAAEdgdE//kR7du6khf8sp8xZs4YJy93bt6lTi9ZUpXp1+nns/8z2feruTiMGDKIqNWtQ604dzLbRCv9dvlzbjPArK4hobOy9org674dhqMyFNVGd9Dn1J77o5mki1+Cbp4sTbbl7hTrnKakLG7L36snH95SQ87Ha5CpKOVOkoaUcEpx26QQt/6OPboyEcT/114/KGyzeKF709L6sXaXzajVsapyr9cHDk1avXM9egJNKjCXgMFbcuDrxM3/pn+rqbt+6R+dOn1fbHtx+3+5DajtuPFcqUaqo2pYnLy9vWjJ/JV2+eJVu37qjytNndKM2HVpSuYql1P7LZ6/o8uVraluejhw6RvETxCcHBwcqUrwQxeMxNbvE48z/62/y8dV5K5q3akSVvimnVatXEU3bOKy2bfNOunf7Hsn558yVndp3aUVZsmZSbf6cMo8uX7rKoi4OlSxVnNau2ai8R1VrVKHvBnQzEoTrV2+mY0dO0qULV0g8aWnc0qhxFy2fRclTJTM6tuxsZS+TWJ36Nfk6PoWnVaGNT8LtwN7D1KFrGzp2+ATt2rHPSGxJaHDZon/ozZu3VKhoQfL2/uQNfPr0Bc2ePp/u3bnPf2gykfwTsGQSul3x92o6e+YCJUmahIqVLEKdu7UJ0fwOc5z6+19Uu0EN5Q31eP+RKlQqQ117tlcC1ZM/A/Nm/00nj52lBPxvoUKVCtSiVUM6xaHeZQtX0fipoykOs1swZyldvXydxk8apfrJvjML+LYdWxgdU85r1fL1dOTgUQ7FJqL6DWtTg6Z1aPjg0ardrOnz+AtAZypQKB8tnL2Uj3OG5H3Pmz8Pde3Vnr9FetG0iX+ptgP7DKf//TaC1qzcQKlSp1DjPH/6kmZOm0sXz18mZxbN1Wt9Q207tCAn/kIkn40kyRLTnZt31WckZYoU9N33PWwKbxtdBHZAAAS+CIE+AwfQnh07qE6FKrR0/Vq+j3y6J1k7oTMnT1Pbho0pZepUJGOYs7s3b9HQvgPozevX9ODefXNNjMrEkRBZFq3FVsW0WehkqyGU1NmVsiTQ5RW5f3hHb988Z29VKsXg8Ye3/KoLS2lQ/r5+Wokt2c+cPC2127GUjrcYQHb8X/FkbuoxtWQ9esYJ9504B2zbzZgVnrh35wGd5xuseE5Kly+hXbZ6lZv4pvXblEipULksHT96SgkRw5DdD/1G6D1R4smZOJa9h8E2c/4kysD5Q2Inj52hjeu2qO0MmTNwH28l4H4b/QctWTVHeabmzlpEhw8cU23kaRYLBc169u1KdfgGr9mjB+508/qnHy9/9uyFVqV/nfbHbBYne/T7cn6SlyaP36f8Snny56Sjh07wZ0AXLr525Ya+rfQrUCgPf6upqMoOHzhO82YtVtsiLq7zsUXAib15+y6E2JIJB+v/3aTq6zeprV7D83T04HHFt0LlMixGnGnGpFn0+NETckuXRr0XP/3wPyWM6jWqzde6VzHVjvPrz7+zB9GPBUxLunHtFm3ZuJ2KGwhgrZ28TvptBrnGjUPDfh5IHu8/0LhREyl37hxUulxxw2bk/dFHieUNa7dQ5x4d6Bx7RTes3UwlyxWjgix4xnC/ly9eUrdeHVS/aX/8pc6hBosYEdnXmXHBIvnpv+171PnfvfuAhW9Gtd+VxzO1mVPmUrz48WjcxJF06eI1mvvXIipcrAC16dSChvb/mWrWqkbZs2ehlUv/pRPHTrHo68giLz7NmDyLVi1dR+27tqK6DWrS/Fl/U+fu7ShhwgR0//5DdnDrvKsjhoxSYv77IbovS5PGT1eitCOLW/fHT5RnsmW7ZlS5agUWiH/zOIvpt8mjTE8T+yAAAtGQQJJkSWndzu3UqHpNJZ5sEVyGQkv6yhimduX8RRoxcLCKqkjdm1ev6PTx46bNjPblS2BkWbQWWxLKK8biSDPJoeqye4XyOD358J4KJUtLSVzZK2ViOZOn0Zd4+vnQ3ZdPyX76YPq9dC1qnL0AZUmUXAkvSazfUqMDpX39hJ5yXlhMsfVrdAKoQeM6KkxoeN7n+du+WO48Oaldl9bU74fetGv7Pnr04JG+Wau2zeg0ey3EMyAmQkQsUeJElCqNTsTKftEShfkbQk/KzwImZYrkUkQtGnZUQuLB/UdKbH1To5I6hwP7jqj6EqWLURz2NjjHiaNu0Kow+KlG7SrsvchFC9kjcoJFoKldu3JTL7SqVK9ErTs0J3dOVp/OYkXCcTOmzqGZ8/6gv+b/Qa0ad1bdS5UtQZ26t6UpE2bS1UvX6CqPoYmtyxeuqjYiShs1b6AEwvmzl2jntt2UNu2n69TOQ7xRIu7kGkQYhdf+275XCaTEzLNsuRJKbO3ddZAFVHM6yaJRbPjIwcoTU7BIPmrbpKsqe/HspRKDmqiUxPoL/AfCkskM1NwcRo7PQuXxwycqof/mjdshxJbWf8Dg3srDU7xkYdqzez894jB0AvZCXmAmP48Zqt5vaXv/3kPavWOf8liJyL5w/golTZ5UsRHP5kVuLx43YVW0ZCFteP2rB4eo/fz8yI5D2A1ZtObhxP+EiRNSuvS6f8uZsmVUn50ixQpRmbIlKUu2TPTi5WtKnSYN3bh+U3nRsmTPrMaTz4t4rDQ7f+6yCi9Onjle7626feuu8oSK2BKT909Yi719+17lzqkdPIEACMQIAmERXLYILZ1Hqz9HET6lMJw9eYrk8bns01+xz3XEMBznzrtXNOn0bvLjhOol18+S1/vXHO7jsB7nTp15+YhqZcxFcR2cKXWyNEZiqV32wuoo8k34+atn1LN4NXLkkOAPZ3fTD7v+4dysQOpRvCrNqtZSia4u2YvQmFc6AROG0/siTd+8esPiaY8KiVWr/U2IcyhfqSwtY8+DiBl5iEdLwjO16lbTt23aqgHlyJ2NLg68TGnTpaYffjLvcg3092eR84ImjJlGN6/d1PeXDU9PL7UvYcfiHL7SxNZ3/XvwjTmxUVttx47v0OkzuFHCRAm1IqPXi2d14k8Ku33bXnnnUnPoqH7j2srL8YCvS44roUXNpE6EUeFiBZXY8nj/XquiMhVLKs+cCDVJ3hfLziHJ8hXLUBwOQZra2n83q6KGTeuaVtm8L2FATcS2bdpd3283e7DadGhGp06cpQK8VIcmIESQyXsgdurUefWak98bzfIVyKe8Ttq+4auE2wb0/lF5+WTmpJeX9STONAYCU0LLPj5+SrjImKOH/2Y4tH67ZOmidOHcJUrK3xTzF8yrZkye531Jb8yeMxvJ+Zta3wE9aPKEGYq5fP4qVSlH4uU0NcmxmzZ5thKY0k5Cgm4c5rVmT9yfqeqsLNA0kz4i/LRvoak5jKCZhLG1fEKtDK8gAALRn4AtgssWoSVXGtFwYNy4IZ06YSUYrcXW1bfP6c9z+3TX5MjJ6ZJbFWyLrp+i4UWrqr0VlVpQ5TUSCguirKkyUJlUGVX5jTccpmKRNaVUXZVYX8MtB9XdOIubBdLsm6doZtUWXG1HHpyMG1Nsy6ad6lRr1qlmlA+lnX/9RrXIj69nG+ceyQ1IbjSyzII8Fq2YHWKZBz9ff61riNfpfCM8wiExETe16tWgRJx/s2XDNjVuiMbBBYHBMw0t1Vsr9+f3RUxuvHEMkuwTJvwkzrw+fDS67mTscRGLz2ErU8uXPzf16t9d5SlJYraYiEZ5JEuexGg5BfF4SYgxE+dJFSiU13Qom/d379ynzv/nX4ey94fdP2y3eE0xmZl49dINcmWRJ3lPmnnz+6Odm4uTkyp+zYI6RSqdJ/He3ftmr+0th0ElPNm8TRNq0qKBYtKzs/U1wcTTZGoJEumWDZk0YxxlDfYmiZfpzUtdmLZ4iaJqGQzhW5CXXcjNXqqNa7eSr68flShT3HQ4zsfzU3VTZk0gj7cedJI/d3/yeYrIrV6zsr69CKPJ42ewUHZTEyaSp0jKuWoLSDxz1ix+fN3fgNev35L0EbvD+W0iYLUJEnZWJkpYGxt1IAAC0YuANcFlq9CSK8qSIzv9Nm0K/TToB0650H0hL1y8GDVv1zrUC5a/47nz5w+1XWgNQv71Da3H566XEII8JFndwG6xZ2v1jbOqRBY09ek1iV52+41uNRukBJR4tSqtnanqt9+7ql7rpM9FAb0m091Oo8m35++qnSwpMe3qCYORo++mzKLbsnGHOsF67NExZ4vmLqUHHB5atGIWLVo5mwb88J2+2eEDR/XbLs7sIWQTr4/cuOWmf/L4WVrKOV/iPZKboQgtMUlk792/K7Vqw8mHnHBsapqokHLJi5KZf9ev3OKxVhnlI5n2M93PyuElMRGI21ksyrcRSfiXZHkxEX3mktpVpZmnPTv3047Nu2jkuOG0asNi+mXsjxwmTalaHth7yKjHutW6XK3GJhMOjBqFsiPnu4uXKBBPjiw0K6JNHvUa1lQCbO/uA5zsWVgx3/DvFnVt//JkBs0KsOdIbNni1fT65VvOTTupvHVaveHr29fv1G7uvDlV2FauVWanBgULVsO21razZc+quK5fs5nX83pP9ziEKHljm4Jz9XLmza7O/eSx01SI87vy5Mml3h/JGSxRqkiIoR1Z0P32v8m0dtUmHjc+lSvPE1X4ffNjEWYX/G/4JYs5Wf5DPHOZOPdLhK98XvbxexIQPCPYwY6/XLG9fPHK6Bh5WUCLrfh7lfrcvnzxmo7w57pkmWJG7bADAiDwdRDQBJckvksCvIissAgtjUKegvlp4szpPJlI9yUtSbJknAZRMtRHkRIl+EuyqzZMuF9ZxUQ/C/57y3KJYxWWjP+oN980j1bU7UwtcxZVnqtkLrpvvR84T6vh+jn01JP/UPMf+AbrZtLWJt9RrUx5lMCS9brEZB2vJhs5oduLlW6wF8LwcFaObtjss23v4bwf8VaVrVCKJLxmzi5z3pKE2/p0H0g169TgJR989c0yZk6v39Y8QlKg5QxplfkL5FH5VuItkHyeVSvWkSSiS8K2iDOxP36bRukzjldhQdkXESMrrkuStnimtNCNCJB2nBgtM9SGfT9Kn9gufZbwKu3ykBDY3CXTVM6QhKYkiX72jPl8w96gP560lxlnYsMHf5rSO4JnuPUd1JPmzFig6g7xMgsiZGT2280bd1SCd59ug0hmbSbkm78WasqYWSfspJOcmyTgiyiQpPbwmqytJXwqV61oNISEDGWywp7/9tO333Wm2vVrqKRxSRyXEKLkQdnZBSkhKUnfkvAtyf7CUcKjhmJWGzhTlgw8k7MCjfpxrCoSbjIbUxZjLcwzHM155+xMvlrJMSXMNmR4fxo/Zgq1a64Le8pY3Xp1VOPK0iGlOa/q6OHjHDbMSg7sYZZzunv7ARmG8rTzkvp2nVvSnD8X8EzGFapY2lerVVldR7mKpZWny9nRkdq0b64mVKxlwSnsa3BY/N8V62nFkjX8ftVRE0B6dupP85bpvjTJBBfxZg36sZ+a1LFj6241vnxOv6lWSTsF9W9c2xF2whEGAiAQcwlogktLmpcrEfFlKRne0pVmzp6Nps6frZZ+yJDp0z3AUvvILLfjm6FZTSHFvjxF34PXQ6p9Yz5tLNwrxHHTzB8eoixSCj5wWI8TbPkru/klGQwP4s1igiNhxdNlIbeEienwo7v04i2HD+NxTo5hOIFXN6dAeyqSNiOliZeIzj5/RO6vn+vGN10/i6fG81dvruMx4uhCO4aHjKztJ13GhGmo77oPVqGuCVPHUO58Ocz2HdBrmNGMP2kkQkgSztu0b2bUZ83KjbRw7hJ9mYTQypYvxaGpRirpXXJzZs9YqMSbNk6hwvlJbnJyA/t96q/6G66s+zVh7BR9iFGOKW0laVlupCJo5MZpzqR+3uLpFI+XWpCctPm8HMA+9gJpJvXtOrWi2vWqqSLJU5JQoJgItd79u9GYX35X+/LUsUsbatq6IS2at0zdvPUVvCFjSWJ2H14OQJYzEJvLy1Fs4FmIMqGgRetGqiyqn14+f82eHU+VNK6Fv7RjfuRQ6ZOnzyldBjejtdG0esNX8ezIdxLtVwBk3CRJEylRZNgutG0JJz98+IicnJz0Ajq0PtbqZXHbe7ceUMZM6dT7athWvjDE5fdahJy0e8XXkC59WiXGpM6Rl5OQcKv8DXr/7gNP3PiUo6eNI8tryOzWJEkS669dq8MrCIDA10ngzavXapaiXF1YhVZUE6l/lp06OXgB9QQJ1Cx00y/J0VNshYeKTNEUl5gILJOQo9FwHOKiABvaGXWKmp2wiq0JY6dxulmg1d/rk5uv3DDtmcFr/mDGixvPauhNQn6vuU9CzscyXPTU8IpllpwjeyxsWYRUwl8uvNaZCKeImCzD8JQFR1yebWop4T608SUc+uG9ByVOmpieBy8zod3UDftuWreddvAMxd95/ai4wTlBhvXYBgEQAAEQAAFrBEITW9EyjGjtgizWicjSpXlYbKIq+Ns08f8x0Qb/2DfU09aShqWhrF0Umol3QUvGttQ2tHrDfuEVRoZjyLb8QLUIo4iYhMi0RVXTs5fIktVrVJPkAQMBEAABEACBqCAQQ2VHVKDAmCAAAiAAAiAAAiAQ+QQgtiKfKUYEARAAARAAARAAAT0BiC09CmyAAAiAAAiAAAiAQOQTgNiKfKYYEQRAAARAAARAAAT0BCC29CiwAQIgAAIgAAIgAAKRTwBiK/KZYkQQAAEQAAEQAAEQ0BOImNhy4kU/YeEjAHbh44ZeIAACIAACIBDDCERIbJVPly2GXW70OV2wiz7vBc4EBEAABEAABKKSQITE1tTSdalylgJELhFbLTwqLzDajc2shJmwg4EACIAACIAACHz9BEJdQd5eVly3YGlcE9DyyrofB7bQBMUgAAIgAAIgAAIg8NUTsKaXLCuprx4LLhAEQAAEQAAEQAAEop6AVbElv1otj7TOCem+16uoPxscAQRAAARAAARAAARiEAHRR6KTNM1k7tRDFVsODg5UNn5mOvD2prn+KAMBEAABEAABEACBWEvg4NtbVCZeJhK9JILLnFkUW9LB3s6eHB0dqW6iXHT+3UNa+uQ4PFzmKKIMBEAABEAABEAgVhEQj5boonPvHlC9xLmVXhLdZE5w2QWxWaIjVX5+fuTj40OPPryiTW+v0FHPB/TY952lLigHARAAARAAARAAga+egJtzIiodL6MSWuniJyMXFxdycnIKu9gSUoGBgeTv769/BAQEkKbPpA4GAiAAAiAAAiAAArGFgDbrUDxYEjqUCKD20OpMWVj1bGmNRVwFBgRSYFCgElqa2NLq8QoCIAACIAACIAACsYmAiC0t5crewXz4UONhk9jSGkNkaSTwCgIgAAIgAAIgAAJkNmxoyiXURU0NO5hL+jKsxzYIgAAIgAAIgAAIgIAxAYuzEY2bYQ8EQAAEQAAEQAAEQCA8BCC2wkMNfUAABEAABEAABEDARgIQWzaCQjMQAAEQAAEQAAEQCA8BiK3wUEMfEAABEAABEAABELCRAMSWjaDQDARAAARAAARAAATCQwBiKzzU0AcEQAAEQAAEQAAEbCQAsWUjKDQDARAAARAAARAAgfAQgNgKDzX0AQEQAAEQAAEQAAEbCUBs2QgKzUAABEAABEAABEAgPAQgtsJDDX1AAARAAARAAARAwEYCEFs2gkIzEAABEAABEAABEAgPAYit8FBDHxAAARAAARAAARCwkQDElo2g0AwEQAAEQAAEQAAEwkMAYis81NAHBEAABEAABEAABGwkALFlIyg0AwEQAAEQAAEQAIHwEIDYCg819AEBEAABEAABEAABGwlAbNkICs1AAARAAARAAARAIDwEILbCQw19QAAEQAAEQAAEQMBGAhBbNoJCMxAAARAAARAAARAIDwGIrfBQQx8QAAEQAAEQAAEQsJEAxJaNoNAMBEAABEAABEAABMJDAGIrPNTQBwRAAARAAARAAARsJACxZSMoNAMBEAABEAABEACB8BCA2AoPNfQBARAAARAAARAAARsJQGzZCArNQAAEQAAEQAAEQCA8BCC2wkMNfUAABEAABEAABEDARgIQWzaCQjMQAAEQAAEQAAEQCA8BiK3wUEMfEAABEAABEAABELCRAMSWjaDQDARAAARAAARAAATCQwBiKzzU0AcEQAAEQAAEQAAEbCQAsWUjKDQDARAAARAAARAAgfAQgNgKDzX0AQEQAAEQAAEQAAEbCUBs2QgKzUAABEAABEAABEAgPAQgtsJDDX1AAARAAARAAARAwEYCEFs2gkIzEAABEAABEAABEAgPAYit8FBDHxAAARAAARAAARCwkYCjje0i3MzPz4+cnJwiPI6tAwT4B5CDo4OtzVW7oKAgsrOzC1OfsDZ+9uwFvX7z1qibI3PJlMHts/IxOoFI3Ll5+x4lSZSIkidPQjdu3qXkyRJT0qRJQj3C9Rt3KHWq5JQoUcJQ26IBCIAACIAACMQkAnYsMIKi6oT37D9Cm7fupEuXb9Dr168pId9IK1coQ906t6YXL9/Q3AVLqUObZlS0SAF1CoePnqJ//t1AfXp1oexZM5k9rQE/jKRsWTNT7x4dQtTvO3CUNm7ZQecuXKH3795T+vRpqWD+fNT7246UInlSo/ar1m6mQ4eP0y8jBtKBA8do38EjdPrMeZo7cyKLoXfqPCpXKEuNGtQ06qft+Pr60dCfxlCSJEnop6H9tOJQX8f+Pp3Wrt9itl3rVo2pX88uYRaJZgeLosILl6/RkSMn6dtu7cweoXrd1tS0cR3q3rkNlavSgDq2b0ldO7Yy29awsFiZmvTTj99Tg7rVDYuxDQIgAAIgAAIxnkCUeLZEv02buYCWLFutAGXJkonKlCpGDx49pg2bttOO//ZSqxaN6cjRk1SxXCm92Hr69Jkqa9a4rkWxdfDQMfL29jECHxgYSH/OXkyLl/yjykuWKEIpUiSna9dvKbF34PAxmjx+FBUskFvf7/ade+pYs+ctpbXrNqtyEYMODo4s5jKpOmnTsH4Ns96uAyzUDhw8Rg0b1NaPaetGnDgutGvrKn1zjw+etGb9VprH4rNIwfxUqUJpfV1027hy5QbNW7jMotgyPF8RrsmShe7VMuyDbRAAARAAARAIDwFx6pQvX151PXjwIEdVjJ0s4RkzsvpEidg6dOSEXmhNnzSGSpcqqj/fq9duUu8Bw2nh4hX6sohubNu5TwktEXWTfx9JbmlT64fcsn0P/TL6dxo5ZgKtXjGPHO2N09REaOXPl5t+HTnEqF+Z0sWV4Dpz9qJeDOoH5Y1NW3aq3fp1qhkW27wtgksz2a5bu6oSWw8ePlbFIliXLF9Dm7ftIk9PTypetDD1/64rJU6sC7M9dn9K4ybM4FDdHSpcKB/ly5uLDh85TrOmj2cxu0+Jtzl//q4dgkaNnUyZM6an9m2aqrL7Dx7RpGlz6Oq1W5QuXRpq2qgO1a5RRdW9ffuelq5cSzt37aWAgEAqVbIYDerXg44cP83npBPQ7bv2o4njfqKULGot2VwWZdW+qUi1qlemGbMWkT2zD2JhvIPHdXBwoMYN61I79uaZ2rv3HvTz6AkUJ04cGsvvS1jDwabjYR8EQAAEQODrJqAJrStXrqgLFdEVnQSXsfKIpPdi7sLlaqQxo4YaCS0pzJ0rO03743+RdCQiCefNnL1QjWcqtKSwTs0q1L5tc3r40J12sggxtbRpU9GsGeONhJa0aVBPFz7ctHWXaRcOib5hYXNChSkLsFCLqEl+2fqN29Uw+Vk0iYmnbtqf8ygrC8hWLRrRkWOnqH3XPiRtfXx9qVP37+nc+Yv6MOfU6XM4XHtN9X3+8jWdOXtBbWtPt27fpUePn6hdOf82HXuTlLXmsdO5paGfR/2uhJ00mDVvCW3cvJM6tmtF1atWoh0799C8RSsoQ3o3ypUzuxqjFguzuK5x1balpxMnz5KIQrH7Dx7SgkXLadfeA9SsSQMWcQEk5yy5Wobm4fGBevUdpkRgn16dIbQM4WAbBEAABEAgBAFNaD158oSOHztO27ZtI9kWwSV10cEi3bP14aMXXblyXbnvqlbWufNMLzRfnpwkob7jJ86YVoV5/zIfS5LORRwZerQMB5Kw5N9LV9GJk+f03hutvlG92uTi7Kzt6l8rlC2hcsx27dlPQwb2IlfXOPq6rTv3qu0GdWvpy8KyIWHQ5m2/1Xe5w+FKsebNGigv1TvON1v090pqwuc9bNB3qk5EXefuA+joidP06vVb9QGSMJ14tcQL1p0F1NVrN1Tb0J6WrFynQrHrV01TiezS/tWr15yntpHq1qpKBznsmjVLRmoUHELNlSMrveB6yaMrXrQQ7T9whFrxuYbVxIO3eN40SpggPtVmEVyjTku6efsO5cyRRQ3l6flReT2fPHtOi2ZPpnQGHsqwHgvtQQAEQAAEvn4ChkJr+7btVKJkCXXRsl2zVk0luKKDhyvSxZbkXYmJCLAW/inEuUmRIbbuB4fdfHx8aVuwCFInYPAUGKibA/D0me7cDKqoQH7znimZOSmhveUr1tLufYeUCNH6iddHrHbNylpRmF8rcK6amAilXDmz0VYOF27n8+/zbSe6c++hqnv8+ClNnDxLbfuzJ0js/oPH9PiJzluUL29OVSYzKIsWLmCz2Lp69TqH6FxoUXCOmwwioUPxPom1adWEJk2ZRQ2adeScujJUoUIp9nBVVHURecqdK4cSWjJGsiSJ1VBvWVhqNmmq7lpFOGfg2ZkwEAABEAABELBEwJLQkvYiuqKT4Ip0sfWCQ1hiyZPqbqZqx8xTyhTJzJSGvUgLjW3nUJc8rJl7sEgxbGNtWYIGdWsosbV56396sSVJ9+KJkjwma/lKhscw3Rah8x3PkDS0tKlTqcTzS+yp8/b2VlVBQYHk6eWlb1aPzycDz7CUvDcJfxoupRHHJaR3Tt+RNyR0qNnbdx7k7OJiNHYO9l6J6BNr3rQ+pUiWjPawyFy3cSutWLWOOrRrQX16dtKGCNeroXfQ3AAyQUE8ZzKJQnLIJOQMAwEQAAEQAAFTAtaEltY2OgmuSBdbSYLXSfJmT5M1+8Az8MJqHw2Eh9Y3frx4anNA3x5UtXI5rdjsq5NTyMt1tiJSsmbOSLlz56BTp8/TUw5tpU6Vkmc36nK4ZJZiZFq1qhWU2BJRlC1bZjV02TIlqHXzhmpbwrMLF6+kVClTUJo0qZSwlHw1Z2cnVX/rzn396Tg46FLxtLXNvLy8VahVayCC7RHPDJUlKyRpXUyW6ZD8Kh8fH5qzYDnVY69etW/KqxyxsROm0z+r11OPLm21IaLk9btvO1PN6hXp5OlzKqF/6aIZISY0RMmBMSgIgAAIgECMIWCL0NIuJroILt2dVjurSHhN55ZWjXLn7qebv7lhrdV/ZGFhzh490iV4G9ZpeVqeHz9SqlQpzD5SsBdNhJbMgAurNaqvW9ph09bdSnhsZe+ZeKYqlNWFAcM6nqX28eK6qioRoTJrMFu2LLSSPUoHeYkJSSL/aeR4NeNSFv2sWF537Ikc6nv+4iUnnR808uplYZEoNnnGPNV3NM9ENLSa1auonK3J0+bSIxZY6zZs5wT58fSEQ8Au7PE6xrMOZabiLfbgfeCZkC9evuIZi25K2Gn5bRcuXSV/nlkYmSYiMa6rKw35vhfdunWHVq3eGJnDYywQAAEQAIEYTiAsQku7VE1wfcmk+UgXW/Hjx6VMLBYu8s34tgXBJQngEioytWTJkqqioxYS5//bfcC0CydXZ1VlMp7M1DNny/5ZT9XrtqKxvFRCWK16NV2u0qYt22k/Cx9ZLLVu7ep6j1JYx5P2EsIztUQJdUs6bNmxR3mbxoziJQ9YHA4Y/AvPHOxFJ0+dJZndmSplcpIJBv36dFeLo9Zu0JaGDh+jlq/QxixcMK+agLBq9QbVV/KicubgEGHw6vhVKpZRi41KeLBh0440ZvwU7p9HH9qUBUslnNmSk/i/qdWc3FmQ9eNlJ8SKFs6vxKYk6z9xD5kDJ23s+D/NQluRX2srAlZrW6NaJc75y69mmb7kxW9hIAACIAACICAExo0bx8nOpPKxRETZaprgkr5qDFs7RlK7KFlBXtZ5Gv7Lb5SHRcF0XubB8CdYJEz14y/j1Yw2uYZhg/tQE87PEbt3/yE1bdVNzQLcuWWlUQhJ1pPq3GOA8sgUL1aY/prGwINtyIixtHvPAWrdshGvRdVNHxqTagmNNWBBIabN3pPtcRNn0BpeRX7DmsXkxmE5a/bz/yaqBHbJKRKxtWTB9M+STySeo/vMRMKA2bJkUiLH8DxlmYQnT59TRk4m/3fdVvprziI6tGeDvokIFQdHe0qSOJG+zHBDRO+9+4/VjETNQ6jVSwjy0uXrvChpUpUnppXLq8ymlIe25pdhHbZBAARAAARAAASMCYRMYjKuD9feN99UoC3bd6tFQRu17KrWcpLQ1qNH7rSVPTcSIipWtKDKhTI8gHjEJE9J1rDq1K0/NWtcj+LHj0dXrt5QSyGI2DFdPV769+7egc6eu0TLeUkDWaSzcqWyJJ6iI8dO6kWdCDGZIRkea8Sz42S2oAgtOcfPlbgtC7BK3pglS8BLKMjDksnvE1ozEcEFC+g8aqbtJPneEi/xQskDBgIgAAIgAAIgEDqBKBFbIhImTRhFM2ctolX8W4ez5izWn4nkVUk4zIVXB5fEc1Mb/dMgTo6epH4KZ/SYP/TVBQrkpZHDB1LjFp1V/pW+gjdkmYAVS2bySvETOd/oFAuvi/pqEQX9+3anlsGJ5vqK4A3TFeVN62W/EIflZPafO4fNGjaoZa7JFy+T2YiGHsQvfkI4ARAAARAAARAAAUUgSsKIhmzldwvvcijsNS/EKSuQS86R2D7+XcFBQ0YahREN+8kSEjdv3SUnZ0dKlTy5zesuyQw9+U3DZy9eUXr+GZr0nLCvzdgzHD8s23INNeu3VQuJym8aInwWFnpoCwIgAAIgAAKxm0CUeLYMkcrSAhIKsxYOM2yvbadInpTkEVYTYSVhvsgM9Z1gD5zMgPimSgUIrbC+IWgPAiAAAiAAArGcQKTPRvzaeEpC//Q/56vL6ti22dd2ebgeEAABEAABEACBKCYQ5Z6tKD7/KBtelj6Q9anc3Z+opHxZ7iEyvWVRduIYGARAAARAAARAIFoR+GJiy4UTupMmTUpxeBHL6GhOjk7k5+dLsiBqxfJl1G8WRsfzxDmBAAiAAAiAAAhEbwJRniAfvS8fZwcCIAACIAACIAACUUsAOVtRyxejgwAIgAAIgAAIxHICEFux/AOAywcBEAABEAABEIhaAhBbUcsXo4MACIAACIAACMRyAhBbsfwDgMsHARAAARAAARCIWgIQW1HLF6ODAAiAAAiAAAjEcgIQW7H8A4DLBwEQAAEQAAEQiFoCEFtRyxejgwAIgAAIgAAIxHICEFux/AOAywcBEAABEAABEIhaAhBbUcsXo4MACIAACIAACMRyAhBbsfwDgMsHARAAARAAARCIWgIQW1HLF6ODAAiAAAiAAAjEcgIQW7H8A4DLBwEQAAEQAAEQiFoCEFtRyxejgwAIgAAIgAAIxHICEFux/AOAywcBEAABEAABEIhaAhBbUcsXo4MACIAACIAACMRyAhBbsfwDgMsHARAAARAAARCIWgIQW1HLF6ODAAiAAAiAAAjEcgKOtlz/rr2HbGmGNiAAAiAAAiAAAiAQKwlUrVzO4nXbBbFZrEUFCIAACIAACIAACIBAhAggjBghfOgMAiAAAiAAAiAAAtYJ2BRG1IaAE0wjgVcQAAEQAAEQAAEQILKzswsVg01iS0RWYEAgBQYFkmxDdIXKFQ1AAARAAARAAAS+YgIisuRhb2dP9g72VkVXqGIrMDCQ/P399Y+AgAC92JI6GAiAAAiAAAiAAAjEFgL29roMLBFaDg4O5OjoqH9odaYsrIot8WCJ0PLx8aFHH17R5nfX6MiHe/TY953pONgHARAAARAAARAAgVhDwM05EZWJl5HqJs5N6eInU9ft5ORk1sNldTZigH8A+fj60P13z2nM0z1UMFF6qpA4O2V01Q0aa4jiQkEABEAABEAABEDAgMB9r1d04O1NOvf2IY1IU4UyJkpJLs4u5ODoYNBKt2lRbGleLS8vL5r9+DCRiyO1S1MqxAAoAAEQAAEQAAEQAIHYSmDpk+MU6ONH37qVJVdXVxVSNE2at7r0gwguydE67HlPebRiK0hcNwiAAAiAAAiAAAiYI1A+cTY6wjrJMKfdtF2oYksEl7vve4QOTclh///tXQVgVEcTHiwhCVo0BAkSnFJcKtDiVqC4FYq0xd0dfqSlpbi7OxSHoqVocSgaXJIAIYEkhAAJ/3x72cvluNiFwEFm4PLe7dvdt/u9fbvfzszuCQKCgCAgCAgCgkC8RwCuVeBJ4Ev4WJJIyZalBBImCAgCgoAgIAgIAoKAIBB9BCJdjYhsItvewSPQj3oe2Up7710jCgqI/l3jc0x7J/raJSf9Xro6OTskj89ISN0FAUFAEBAEBIGPBoHI+FKsNFtdD2+mvdfPCtGKSVNhUgrMgJ2IICAICAKCgCAgCHz8CMSKbB246/7xIxRHNRTs4ghYyVYQEAQEAUFAELAxBGJFtujlcxurzgdUHMHuA3pYUlRBQBAQBAQBQcB6BGJHtqy/r6QUBAQBQUAQEAQEAUEgXiAgZCtePGappCAgCAgCgoAgIAi8LwSEbL0v5OW+goAgIAgIAoKAIBAvEBCyFS8es1RSEBAEBAFBQBAQBN4XAkK23hfycl9BQBAQBAQBQUAQiBcICNmKF49ZKikICAKCgCAgCAgC7wuBKHeQfx8FK5rFjVwcUxpvHRwSQlvvXCZ6bmmX+gTUsEBpKu+cgzLwjuxnvO/TvCsn6O6je8b06iRBAmpTuByVTZ+VHBLb0ZGHt2jSyX1EwS/V5a+yF6SUdknDpzH5dvDhHXr82Msk5P2fvnr5iv43dBwVLlKQ6jaoZVWB7t/3pGtXblCZz0tQ4iQ22RysqpctJTp04BitX7OJBgzpQanTpLaloklZBAFBQBAQBN4BAjY5uv5Z6XvKbEK2NA43A3yp1f7VtP/6ORXkkCod3ajfgzIkddJR6Lts+Wl40Yo0+cJh6rJnuSE8WWp62mwAJU9ib4zXJMenNK5EdSqyfhJd8LhBO6u1IfuEiYzXzU8WuZ+kltsXmAe/1++7//qbjh89ScmSJTOWIyjoBfXrPpQePvBWYdlzZqWRvwwyXjc/mTFpHp389xSNHT+CChbOZ345yu9bN/1Fq5eto5cvg6ljt3ZU5osSUaaJTxGCXwXT7Gnz+Xk8omeBzyk+Ua0nvn7019bd4R53wsSJyTV7FjVBSJQ44vctXKIP8Ms/+4+QUzJHKlLsU9q/5yClTJmcPuPzyGTvrgPk7JyB8hbIHVm0OLkW3TLG5OaYJJ86fpZO/XuG2nVsGZOkH0zcS/9dodu371Hlal+TaX2/b9uENq3dSt+3733BAAAjv0lEQVRULk+fpE0V5/WJi+cX54X+QG6watFS8vL0pM59esaqxLZpRgwx/Gq234vndJCJ0DlvDwrhX9J2dUpFO6u2NlSYNVXX63VTRIt/Z5s2XDtLE07updt+Pup65/xlqHHBsur8cPU2imgFsRZrzvlDNO3sAXoREkx2TK4O12qv4uy8dYmOe91WH+QHeRIUaAzbc/uKCrOVP/hl8Q1rNqri1KpTLaxYjMvTp0/J18dHfbw8I9fGBQcHq7T2ScOIaFhmUZ+BTIBI4H5Pn/pFnSCexTj0zzGFT9ESRcgls3O8qr3PYx9aMHcp7dyxmw7sP6w+m9ZvoSH9/kfDBo4htB1bk80bttOY4b/Huli7d+6jw/zsITu37aFjh09GmefWTTvp9OnzUcaLLMLvY6fSupWbIouirqH/+LFlZzp/5qL6Ht0yRpmxSYSjB4/TsP6j6NGjRyahH9cpnteGtYafXjOt74vnQartP3r4buoe3ed35aK7eu6YlItEjcCqxctoztRp9OzZs6gjRxHDJjVbusx/379ONVdNJHCf1kXK0dzKTRVBgkarbmY3yhj6Q86tdyylBWf/IUqYgLrvXE6eXX9XJsVZn9elFUyu8qdKr7JcfZVnWNsXq/OD927QtG8aGG7FZsVv10zmX90OJXk9JlEy1oKtcT9LbTfPM8SxY6iS2M5M/CTPGO/cukd58+emPPlzGcrIf+3tktDcJVPp9ImzNKjPSGN4RCfDRvUnfz+/aJm3QoJDKGGi8Py8Vt2qdPH8Rfp736GIbmF1uKX7WZ0ZJ8QAk4DJaHQFZCC22pd1qwyEuG6DmhZvizJBYlIuixmFBsa0jsA4Ab83b+v+lsrWvXdnylcwTFszd8ZiWr96I12/dovc8uSwlOS9hfn6PiXP+w/e6v1HjBnwVvOLLLOHXg8o9SdhLhgRxX3Nfd39u54U+NzwKyBxUUZM9NKlT0v9h8ZOIxBRHWwhvEGTOlS/4beqKOb1Xb9tObtmvJsxI7rPLzDouXrukf1g8vvGdcSAwbRn506av3IZZc+ZM0bFuXHtGv3QqClrFCvTkNGWxz/P+/dpUPde9E3VKtT0h5aR5r9m2bJIr8fkok2TLR4BiBwNGhdTU5k9j081suQx1nPB1RNEDnaG7/ZJaMuNC9Q6fymD2ZC1Vx7PnlIK9sdqlrcY5UnnTEvYJDjp/DFa9ntnQ5oUjmHpjbnyCQ9C5GSdxsc0m7g414N4nfq1rMr+/LmLNHf6Igp6YZjhNGxSl8pX+MKYV4BfAI0a/hth8MlXIA8FBQbR4YNH1fXvf2hCtevXMMY1PTnBJoNFc5bRy+BXZG9vT4OH94mRGj0gIJDmzVpMhw4cIb8nflS8VFFyyeJCp06cIScnRwI5/OPXqQRfM+T/x9TRBOK5eN5yVZeatatS9VqVjEW6fu0mLZq7nC5fuqryc8uTixo2/c5o7nz54hWNHPIrz769KWHChDSSB8ZNG7YRTDrQ2DX+viGhQx01ZJyKg4yz58hGbX9qQb/8bwI99fNX96pRqzLVqF3FeF+cXDx/ha5edqcs2VyUOcn04r07HjRz6nz679wFFVylWkXy8vIiD48HCu/6jevQ+LGTKSDgGRUuXIB+6txaaSx2/bVPxe/eu6ORqIAUrmFSt2/XfkXAU6VOTaXKFKVWbZtRcjZfQW7duE2Tx89UpsxMmTJS154/0/TJc+no4eNkZ29H3ft0pGeM/ZqVfxI6YmDxc8fWdOXyNdq1c6/Kw9EhKY0YM5Ac2TwWG/n8y1KKbPn6PlHZYNIwi02t7levU0bnjFS/UW36/KtS6pqn50Oa+sdMdS0/t8OMGTOqcJilJv8+g7JkzUx1Qons33sPscnuAA0e2VfFOcyalVVL15InD/puuXNR259bUFbXLOraxvXbaPf2fXT37j0qUCg/der2o2ojWzZuV+1k2IAxNGx0fxXX9M+6VZvpwL6DKs98+fMQ3puozH4glxkyplPvTPcO/ali1a9p14595OnhSXnyulHPvp2Mz0nf6w6bpiaOm0aly5Sg+k3r6GB1DGRz9JL5K9U78jwoiL74qgy1+fl7WrZ4DZ0/e4Fu3brDz9SemrdsQBGVd2DvESqvGZPn8CSkNZ0+fs5YxueslUGZ//n7EL1gDUjxkkWoXYcfKG26T1hLt5cunL+k3kWYrhy5f2zQpB5Vqlo+XBmPHTlBG9dtVe9Q/x7DaMz4YfTA8xFNmzSbzp35T7W5ytUqcBkbURKeyM6eupAckzvSvVt3mQAG0dBR/cLlBzyWL1pNp06eZTKZWvULrds1CxdHfzl+7LS6N94tZxdnate+pTJb/7lmC92758F1eklHj/yr8mnz0/dUrERhlTSydoj3cgq/P2f4/uhDKlX7RvUz+/46QKdPnacvy5cOV9/BI/rQENbqde3dgduoi+qj5sxYSLf5PYSWu37j2vTpZwV0kdURfd9Q1vqW+bwUY39YtbHSZUuwCbYVOTo4RIqfaRubOmEOT55T0fWrN+g/nginT5eOOvX4iZwY30m/TVf36tl5II0cO4jSpLU9x4bOPbvTnh07qMZX39CSDesYr2LhcIroy8l/T1DzOt9R+owZCHlYkhtX3alfl+7k8/gx3b55y1KUcGF6Mhwu0Mov4dUUVmYSV8nKZcpB/zbpS9daDqOJZQ2zh/v+T9hk9YC1VRnUbe/5+/IxvDli0WUmX6GSPW0marFjCSvHWKvB/0qkcaGJpWrR6zYjybPHRKpWLIxg6DS2frx5/bZ66TFrLPNlSauKe/f2fUUE8PLj4+X1MFw+T/0D6Cx3Iri2Y/NftG/33xTEnSA+s6cvIC/ufCwJSM019+sq3VU+9/Z+bCmaxTBoWdDZ4H4gWhD4pP3JzuUox0Xu5J/4PKEjB48Z80cc4AFSgzienmHlAqHs8mNvlQcGDZhKEW/U0F9px9Y9SErPeWYPnzWkvcnEbHD/0bRq2Xo1SOD6+lV/0gse3HQcxDt5/DTXy1cNbPiOzyVWz5vL+lAzb90GtcNd8vH2oS4/91Z5akw3snnt6KHjKq/TTCy92ecO9VXl4vwh587+p74jTBMVdAYwyS2eu8xItGDS3cG+Ut069iMMzBA830sX2L+E0wI/XPt770H1PIH1ru17GZtrCgN1T8bi1s3bTAbD7on0vmyijqn4PnlKjx/5qs+lC1dp9Yr16lnkZ62sP5P6bh368rwqIfXq35VK80KNMUzyz5w8p3xghvQdQT78zDt3/5lnudnpz3WbmWh7qCLAV+bho7D2BUxuhmIF89ioIb8QCFE/XpiQjAli947Q4gao9jJryjxq3KI+DRzWm0lmABP8RYrklihVjDJlzkhNmodqvU0qi4nEvJkLqWKV8jR81ABKzD5nUybONolh+RTkR7dLtL95MxdRzW+rUDMm8iAefzLxMxUQ4z7dBlMG9t+q2/DNydRuJmpHDh2j3gO60Y9MgjAw7965nypW+oqyZs9KhT8rSOW+LkuRlbfZD43ULatWq0RubjkUQdNlnM2TABCtxk3r0fDRA5mgeNKoYb8R3s/HbBretX0Pvx8PqUe/TkzQMjApnEqYtJhKrlw5mRAVU5qtZkyoMCEY1Hc4+754UY++nZnc/kSbeVKzdNFKlQzPdPnCVfTkqT9Vrl7RNCt1Pn7sFNXm+w/pqXBbt2IDm2n/fSMeJoloPyDA//tlCOXKlYPGjhyv2hLqt3XjDkrE2ibkkyOHq+pvQOgjbYcoe+/h9IInpqN/H0YlmQBNmzCLHnl5c/vzVv3dG/Vl9wy8L4FMoO7d9aAhfUdSgYJ5VXq0xelMOs0H8pBXr1SaZYtXqQlhx67t1Ds6f+aSKPEzbWP3mVAuW7CSXHlSCJz9A/yZPC+kT5ikYjIKaf1jC0qRwjARewPE9xyQOs0ntH7ndkWaQJ5AoqISU6KFtMjDXC6cOUc923dSRAvXfLy96cTRo5F+0Obflti0ZgumvOJMjrTAh6rN7uVK4+Th/5Q+S5OJUjs46svGY560Yb4xAS+D6MYjT0o4uTf9WqYafef2KeVImVYRLzjWb6nSkjI99iBPb0MHbszEhk82rN2iSlf7uxqUiDUQ1kiV6t/wjD4vzZ+1hP1Jjr+RhbNzeho4oq8asHCxeesmVJYHQgxYIAjQeGTgOKbi4+NL/7BvDgSzt87df6R0GdKaRon0/MTxM6qzQaSGTevyzLEqrV25QWmaEDaEZ7uZsjjTtLnjqUObHghSUqdedR5kb7HqeV9oiOEAjQikxrdV6UeeHUKWLlypyNSsqfOoEg+ayVMko3lLp1P/XkMVgQThataqMRX6ND8dO3qC8ubLrbQOs9k02655R5UHBotcubOrfKEJ+bpSeerCM0dTARk9dOCoSlvORGOIOOv5+QFDSP+hvdhhPCtN4bJi4IVMmPaLKld77mynmwzmfQd3p45te4Qjugf/PspOyGcUeZk441fKnCWTmgF37dBHxdu2aRd917AmlWAN4a8T/seD+CB1D18mML0HdiMHx6RKq1GhanlyZa0PtFqb1m9Vs/fq31amz8uVZhLYVqWZNGscQSsWUwHpMZcWbZryTNuJoGECFj36deQ6w4m8kCLH+/b8owYjmLrGTuDFG4XyUVmeWJw5dc48K4vf4UeTkwfaNh2+V9dzueVUA9exwyfIgTWkEBCHr8qXVc/A+6G30tykz5CObjF5NzXNq8j8Jz23ZbTB4ty2Hz/2pcysVcMzjqm5uXmrRlShSjmVLTRRd5iMacEEBQtOSpUprjRe5mZ7xPO478UTzidqolD2q9KUi8kSNJEu/G6kSJ6MB6n0SpuCuBGVNz+TUIhrrmzhXAjgywOiDk2Z1l5DiwuXBNwXgklLH247WL2cLl0aat+6G1/zMGoNEQdO4ZlcMlBSB3u18AbaZzzLP7hta9PxNfcbtG3zTqWBRRpogEeNG4zTNwSrrfMxOU/G7yu0wtDeXr1yzaih1gmCgl6q9vSIn2eatJ9Q+65t2KT0Fb0OHTSRrkPXtqrfhKYU2nrd/0XUDoPZ5Ir3eQhrTLPxuwqNVAj7/N5nzaQW8/rqySKu79qxV/UD7Tu3UW4YOXK6cj+0irwf+ag2p/PQxzY/tzTWCybt5UtW8/dSUeKn0+NYkttP81YNVRCsE5gkJOXnlsMtuwpD3w+Noq2KJlx1K1dV2qrINFzRIVoGjVY39c7oOp/69zgv3nhz7NPX3/bRdtHmml5/4k3jT+xmk1QwLb58igKf8iyWX174Tp18dJeqZctLjonsKGMa53BkqYVbEYUTtFkPvL2ofYlKlJhNgn1O7aY+u3gmxQPKTyUq0oxKjRXpauNWlEZ5GwjM2wb4becHrQhmlujwKlWvYHX28NGBejtFyhQR5pE6dZjvR936NdlsZ0e5WYUOUvCUZ6DmsoRNeVp69+8czjSC7Q8m/zFDXw53TMomj/nLp5P7lesqHHVr0qKh6gya8cAEsx4kVUpDeVKmCr+6BwNSch5kTOWZ/zOl6UHYqZOnqVcXA8nQZlN0rDBFgpykz5iW8Uyqkrf+qaUiJ/hiujoT5LNyjYq0c8suOvLPUSrKK8sO8kALachmHvOO609eiQSpyYsX4EdnKu48SECKFC9sNJd9x6YzTbZAACEpzZ4NOksHx/CTi7OhDtWoz+9jJqt0+ANNHsT9irs6Gp53JnWOP1h9qge9kqXD1PT1GnyryBY0MN4PHtNR1ixCylX4kjBIWCNDRw+gvHlzqaTQck1i8x80cbW/q073WMMKaV7PQOjUF/4Dk/H90ME9HxNeLTADPjbRZulwHF/xilgt99g8CLNQ7UoGDY4Ox8CDwbc6a5ZAZPGBWajFD411lAiPDkkdaBuvvh0xcKyKYz7ZiDCh2QWYSrU4JnPiGbaP/qq0m2j/IBTmmg8dqXHzekqDh4UGEJjaMZCbizXlfcBaHkj+AvmM2WVkUxzExxdWBFIaN71NjIOjgwoDyYlMNFHLmcvVGM2F8wUp0dqDgp8WNF4zP3n2LJAnegPUQhwQpsDAZ+ZR1HeQni69OtD82YvVu4pnBG2ONtlldXUxTlBRBxDoR9yegp49V+kttUNPDy91LTO7M2hp9r1B83nhv8s6KMKjF7djV9esRn/XZDzJ+KnTDxHGz+qa2XjN2SWjIo+3b91VYZHhZ0zEJxlZ46jFycnBOLnTYR/CMTqEKzpEC3WN6F2KLg6OZv1udNOZxkts+sXWzi/6PqCpp/cZioVl4vCtCpUFl4/TwGIV1bfl5RvR12sn8vlrypkhK5XNkE2FX/HhjoNJ1oTSNZVjfRWX3FRzIw/4r0No5tXjNK1iI76cgPzYafBDkS28YglStUYlHpAMHV1clx2dG4gWxIkHB4O8Dj1aPkyfNIf6sCZGSyB3lqazPR2Oox//g9glCSMl/FiUhB4MXyz8DXrxUpEZ89Uiz58byAaSOCVLrpbe6+Tp2fya+pNUauarw/QxG29LEJHUZJ8skC3M/PMWyKs6/hJMVEBaTQWmjB3bdqmgGqwdMpfEiQ31hOksOvI8lDghbkCoj5hOpzsRDNApU4UR50KpClAiJqFlvyyto4Y7mnbophfSZkjDprySytS4fdtuOsjmJEidejVNo8XoPJmTk5F4w4esKQ9Ug1lTAnMHvqPsy9bNo8SJ+B1nuXmTfY64LcDfDoL6OyU2tHVooLQzP7S6WmOBeB5MnrWkZGKeoVQGgu+Mlv/YLJs5swvdvXOfvmWi92OHVqxJvUpr2VQ8efwMmrN4io5q8biczTuXLl5RmtUs2aDVOqZMVhYjRxKYKHHEz71i1W8Y6xrUqV1PNmFvesNfC9l6sFmvF5vw4LMIf6EFcxbTovkr2KzYJdxdrSmvEz8rCPzctHbvNpuTISCl589eVFo0FRCDPzCdQaARhO8X5Pr1W/Qp7xGotXf6nVcXTf7APDyFn0/DZvWoHk9K0O9Bm2ZJoF2HhnbZ2rnsk3OHdrPv5dwZixQhRXzTSeKzwEBFyOE7FsDtLaJ2CBMjxIddB/B+QOD/lSefmzqP6k82nqRcDO23ERcTwXXsGlG9ZhWL/qzP2E9Ty1WeLKFcqULf7cjw02lwTMDv/scgkRGu6BIt4JAjtxuNnTSBBvfqQ36hrhBFShSnhi2aRgkT+pt8hQpFGS+qCLb/ROyYD+IDZ3UTcWfN1uorp1QINjQN6jCeHrUbS+4NeikCBa1W+XXT1PXtNy+qY40seSm4wx9044cR9KL9ryoetpSYdPGYSc62ewoV/xb2OYDU4sHC1gSq614DuqpiYXXilo1/GYv4BfuQTJ83weIHZjxITjdXdYSWZgX7TaHjXLpwtQoz/ZOUTV9abrjfZAISQP8eMbQFHY4ZrnYOh5kFDrdweO4/rBdVqFxeafQc2OE7JgLNTj72u4DATwWinbPVl9A/O9iJGHWAE22qVClNL6nzXLlzqCP8wODEDZ8RrM4zF8dQcxcGO/jEXL183ehLpuO65nBVp7jfz13aqjqinu3at1JmrrRs5omp1KpbTSVZsXi1GowKsklVa8Fimpel+J8w0YU88w9kk9xnCqvN67fTi5cv6SSvou3TdRD7p11g7YrB1LWWnfZhqjvDWjz48GmBhghaSwyqWNK+5699+pIy9SEuyEjQyxcETeOAnsPI39+PTZH/0VB2Xoa2BdrLAgXzMaELUrPfREz4sHUKnMTNxY+JLrQxzpmcyfuhj/GZvWJN+duSjJkysK9NVmrAZnRsmwHHcHNZx21l6sQ5ql6lyhTjLUVcuH0YJhcgLo/ZPAW8IisvVqBCoNXRmiV8x3sDvy+YkoEr2h20eaXKFn9DQ4v40ZUCbAaGLF+0SvlePXr4mA6xrxnyjUp8Hz9RUbBQJylP+vawfxq0lq950mwu/k8DqEen/ryg5hxPgjKz60NJFQV4QOAmAF8vEK2VS9apsGLcBiNrh3kLuCmz5VIm2yB+WDwDv9W0aaP3bn3BEx4sttny5w7lG7Z4wUqexBzmPMMmR6ogoX9AskHI0Kb37/6HSvGEDu8gxBr8QrNVh0QJDBMamFk/FNGEC47v2ocrJkRL1zN/4UL027TJPNE2kP3UadJQsVKlovwULVmSHHiBQmyFWYztSegODEyXItGe8Ky24aY5tLxma2qcp5jSXKWxd1SV8Wc/rTobZpFnADco7lRqr59GW+t1omqu+RXBwn5dEOzjVW/jXGL7JNbeqzDTP5Hc3TTaOzvfwy85tEOfs59GRl7dZElGDPrF6IOA6/CTqFmhgZod9ezXRfm9oAPv32O40szoPGDWwQdarNmLJ9Er1hgNHzRGXYbD9a+88g5+L3CuhsDJNyeTj2u8fF9v+1CKHUe/LFeGV9nNU+WcPnEWOzeeVKvDYEqDT0Zkgk0fMdOFY/4K7pTxsSTIC+YB+FH06jxA1Q1kAwLH2dy5c9IX7GvUgldNwpF126Ydas+jzOzTAh8ZLd+z6QjajjEjfjdq3eCgD0H+M+dPfGNXfexpBsd1iCvXH87IpoJO3bhSlDUUlqQuh8NXBc/Skj+TTpOFTZwQ1K1x3VbhTAHjf5lME6aOpW8qfcn326CwaNusg9oKxJsHUHTukGSOThzmRhtWb6bFC1aoMPypV72ZOi9f4SsmyJ2N4TjBLxLASRxtB1I7FlotpDd/tbRjLvahwqpCmG7hUwLTDwQ+cFVqVFDmnu59OvHq0ylqVSGumbYhrDo9sP+g8t9Duy3Eqzbv3L6LaIoEX792QzlAqwD+82On1sqvKE26tMqPBtoRaA0c2O8TjuYwK+F5LmWc2v/QTZm2dVoc69b/lkYMGUt1qzVRwdC03GDtzPABo2n0b0NNo6pzLMjRYnquw3DErNlUU6fPGzevr3zMxv8yVa24NU1Tr1EdGj1sHLWo304Fox326NtRnRcvWUxhmZg3j42qvF/wuzqVNUZ2HBeiy9iLXQBGcj+i/SKxEGfw//qqOPiTyEQjq8trvGhygvwS8GpwCLRZmIj9Nnqi0gwjDO96BX7WWvT99Xd9BPlEOwXOEGjYKlb5hn3b1vMq38JGEyGuoX1U45XBcEjHs4XU5hXbyAOCuvw2ZqJ6l3D9Zza/6hWqEbVD1BF+XsD8L94zDZM4xNVaLpUx/zGtrzEs1JeuPq9ohrYfH5SxXYfWRo2ejquPfrw4qWHtluorSFY71sDilydigh8sNlpQfo1FTvY1BQZo33OWTotwHNFpbeWoCZf24UK5QL4icoaPqNzZ3XLRxLkz1dYPWV2zRRQtTsITsBnCIqdAMFZf+PEeTNWvzKWNRTq8UQDnuQPfCHsrAf5s1uNZLk9jLG/JYHoTmIteEZXInINcUqSig3dv0EPfh2w7Yq2FqSqVty6gkIRUNFM2cnZKSace3KX7jx8Y8mcfsHDylNW42OwTmo+kScJdeptfPNqMilF2nXhlHWZm4yaOCrdvkWkmWGatfX9Mw3Hed3APXqJcRs2W8bJZEnQkcxZOVls3tGnW0TjAYwaak0kMVrlogd8PHOUxUEL6DOpOxUsXUYOAJj/oUC0NRDoP86Na1j5vJR05fIw3kgtUq8kuXrisiMn4KWMod75cKglWWs1lwoeVc+hI0OlqIogBWjsgY4f7xfOXG8kU4rpxPerzkv3iJT9T2pKBPYebF0N1SDMWTnpjNg8yhY4Q9YOjPPx/TAVL3uHTU7jopxE6+yI+lsHPZdz+O3eZknD7w/YDWPEJ2bw7TJuHpfurV6xT5QcBTJ06lVpEgHrAkR4dN0gntpHQjr7IA3GLsSN3S97+AWaX5YvXKhKBa6YC4m5pHyRsjIkVeshnNrcHbeoxTfs2z6GdhI8WzLvazKTzR5t44PmAHa4z8RYRCwgbReqtAfA8HvAsHZMPSwP/I/Y7g4bUhX1fzLesgOYmhGd2eiDW94PWg4JfvxEf17FL+N1bd1mblEmRM5TtBfsrpUyVXCd/J0eUw/3SdfqEl/ibL0IBibfj9gHTf1TlRVxH9iEyX2gDXO/eucfPPZHS5r2t5w+8sBIa7ThteoOGIbqAQRuG+bdOh2eLPcUs7YWHuN78gbZc+5fNnDJfrQwcOrof+wreU8/QPG1k7RA/j+bFWmhn1j5agwe2dkD+8BG1JHgWTb5rTejn0nGc4BfBbxC62OCn74mx/ekT/3feZvX9Y3P04dXtIFyQmBKt2Nw3Omm/PcVKndy8gXry5GRnZ/dGf2SbZCs6NTOPg9UmUImBYJmZHMNFhcqfO9Io44VLFDdfYkq2xo2exO5mIUxqLBOluCnl+8+1Q9ueilSZki1dKpAW7BVj3mnq6/qIlT9BL4LUz6FYGpR1vKiO19xvUtefeisN4MIV09+4L/bW+mPcZF5J1tXo8xJVnrgOv5DGdVqpqKZkCwEY+FD+iDpplYj/wH8NpCQNL/E2JxY6TnSPIwf/opy1sSLSkt9ZdPN52/Gwh5Ap2Xrb+Ut+Hy8CmmyNGDvAJitpSrb0pNImCyqFsohAVGTLoD+2mPQDCwTJMlNQWawBq3WJ/3+IYu4A+yHWISZlhulrP+8FBe0V5I9xU6hRs/rhNl+NioDo+8V28z7sy7Wd9//SvzmJ1VDLl6zh5dWN9C3UETulz2JNUEwEP7Fy4/pNY5LeXQfz/jjt1DJzBIJIRqeeylRr5qxvzDQaJyB8v46ayA6kfmo/MiTZuWU3fVa0kM381BC0UNiwUUQQiCkCWNTgZLZqOaZ5xGX8ROybjJWlYYuQ4vJukve7RuDjIVvvGjm5X5wjgE08sQWBFjjFXr10LRzZ0tfi+niRl3iblgVmxDPsW2ZOtmJaDph5Dh04bDTXIj18wu7f8zKSrZjmaW18f14FBad9U8EGtQ95Q1Rb+V1HW9KymeIk57aPgOkvS9hiabFLvKVfLbDFskqZYo6AkK2YYyYp3hECA3jDzye+fsa7JUycwOLqPmOEODzBBq3NecdvU0mdLrXpV6vO4SuzZM0c3mk6bPsRe/skasNPqzKMRSL4PS1fP1/9NJPOBis/sS+QiCAgCAgCgoD1CAjZsh47SRnHCMB8hqXotiAoi/nqo7dVLmxBEdNtKN7Wvc3zwYaqelNV82vyXRAQBAQBQcA6BD5Q7yXrKiupBAFBQBAQBAQBQUAQeNcICNl614jL/QQBQUAQEAQEAUEgXiEgZCtePW6prCAgCAgCgoAgIAi8awRiR7aS8KafItYhINhZh5ukEgQEAUFAEBAEPjAEYkW2vsyc6wOrru0UV7CznWchJREEBAFBQBAQBOISgViRrYllatLXOT4lspel4dF+SIwVMAN2IoKAICAICAKCgCDw8SMQ5dYPCbHjegTi7JCcln0dfgftCKJKsCAgCAgCgoAgIAgIAh8tApHxpYiZ1EcLh1RMEBAEBAFBQBAQBASBd4dApGQLP9iLTya7FHQr0PvdlUruJAgIAoKAICAICAKCwAeAAPgReJLmTJaKHCXZSpQoEX2eLDv97XvVUnoJEwQEAUFAEBAEBAFBIN4icMDXnco6uRL4EgiXJYmQbCFBwgQJKXHixFQzZV468+QOLfE4KhouSyhKmCAgCAgCgoAgIAjEKwSg0QIvOv3kNtVKlU/xJfAmS4QrwWuWiNDBpZcvX1JQUBDd9femTb4X6HDAbbr34klESSRcEBAEBAFBQBAQBASBjx4BF7uUVMYpmyJamZOlIXt7e0qSJEnMyRaQCgkJoVevXhk/wcHBpPkZrokIAoKAICAICAKCgCAQXxDQqw6hwYLpEBZA/dHXzLGIVLOlI4NchQSHUMjrEEW0NNnS1+UoCAgCgoAgIAgIAoJAfEIAZEu7XCVMZNl8qPGIFtnSkYVkaSTkKAgIAoKAICAICAKCAFk0G5rjEuWmpqYJLDl9mV6Xc0FAEBAEBAFBQBAQBASB8AhEuBoxfDT5JggIAoKAICAICAKCgCBgDQJCtqxBTdIIAoKAICAICAKCgCAQTQSEbEUTKIkmCAgCgoAgIAgIAoKANQgI2bIGNUkjCAgCgoAgIAgIAoJANBEQshVNoCSaICAICAKCgCAgCAgC1iAgZMsa1CSNICAICAKCgCAgCAgC0URAyFY0gZJogoAgIAgIAoKAICAIWIOAkC1rUJM0goAgIAgIAoKAICAIRBMBIVvRBEqiCQKCgCAgCAgCgoAgYA0CQrasQU3SCAKCgCAgCAgCgoAgEE0EhGxFEyiJJggIAoKAICAICAKCgDUICNmyBjVJIwgIAoKAICAICAKCQDQR+D96o4TqGHQdLAAAAABJRU5ErkJggg==;" vertex="1" parent="1">
          <mxGeometry x="13.5" y="600" width="480.93" height="390" as="geometry" />
        </mxCell>
      </root>
    </mxGraphModel>
  </diagram>
</mxfile>
